<?xml version="1.0" encoding="iso-8859-1"?>
<!-- Uploaded to: SVG Repo, www.svgrepo.com, Generator: SVG Repo Mixer Tools -->
<svg height="800px" width="800px" version="1.1" id="Layer_1" xmlns="http://www.w3.org/2000/svg" xmlns:xlink="http://www.w3.org/1999/xlink" 
	 viewBox="0 0 512 512" xml:space="preserve">
<path style="fill:#77E0C1;" d="M328.62,3.678L3.678,328.619c-4.904,4.905-4.904,12.856,0,17.761L165.62,508.321
	c4.905,4.905,12.857,4.905,17.761,0l324.941-324.94c4.904-4.905,4.904-12.856,0-17.761L346.381,3.678
	C341.476-1.226,333.524-1.226,328.62,3.678z"/>
<g>
	<path style="fill:#4C9462;" d="M115.938,458.639l49.682,49.682c4.905,4.905,12.857,4.905,17.761,0l49.682-49.682
		C200.72,426.296,148.281,426.296,115.938,458.639z M3.678,346.38l49.682,49.682c32.344-32.343,32.344-84.782,0-117.125
		L3.678,328.619C-1.226,333.523-1.226,341.475,3.678,346.38z M328.62,3.678l-50.336,50.336
		c32.556,32.556,85.475,32.342,117.763-0.645c0-0.01,0-0.015,0-0.026L346.382,3.678C341.476-1.226,333.524-1.226,328.62,3.678z
		 M457.986,233.717l50.336-50.336c4.904-4.904,4.904-12.856,0-17.761l-49.665-49.665c-0.01,0-0.016,0-0.026,0
		C425.643,148.242,425.429,201.16,457.986,233.717z"/>
	<circle style="fill:#4C9462;" cx="255.671" cy="256.329" r="97.346"/>
</g>
<circle style="opacity:0.1;enable-background:new    ;" cx="255.671" cy="256.329" r="56.653"/>
<g>
	<path style="fill:#333E48;" d="M123.09,397.134c-2.104,0-4.209-0.803-5.814-2.409c-3.211-3.211-3.211-8.418,0-11.628l41.702-41.702
		c3.211-3.211,8.418-3.211,11.628,0c3.211,3.211,3.211,8.418,0,11.628l-41.702,41.702
		C127.297,396.33,125.193,397.134,123.09,397.134z"/>
	<path style="fill:#333E48;" d="M346.555,173.667c-2.104,0-4.209-0.803-5.815-2.409c-3.211-3.211-3.211-8.418,0-11.628
		l41.702-41.702c3.212-3.211,8.418-3.211,11.629,0c3.211,3.211,3.211,8.418,0,11.628l-41.702,41.702
		C350.764,172.865,348.659,173.667,346.555,173.667z"/>
</g>
<path style="opacity:0.1;enable-background:new    ;" d="M17.824,314.474L3.678,328.619c-4.904,4.905-4.904,12.856,0,17.761
	L165.62,508.321c4.905,4.905,12.857,4.905,17.761,0l14.145-14.145L17.824,314.474z"/>
<circle style="fill:#FFB547;" cx="372.675" cy="366.897" r="115.512"/>
<circle style="fill:#FEE050;" cx="372.675" cy="366.897" r="81.558"/>
<g>
	<path style="fill:#FFB547;" d="M385.375,411.956h-43.812c-4.542,0-8.223-3.682-8.223-8.223s3.68-8.223,8.223-8.223h43.812
		c5.623,0,10.197-4.574,10.197-10.196c0-5.622-4.574-10.197-10.197-10.197h-25.393c-14.69,0-26.642-11.951-26.642-26.642
		c0-14.69,11.95-26.642,26.642-26.642h43.813c4.542,0,8.223,3.682,8.223,8.223c0,4.541-3.68,8.223-8.223,8.223h-43.813
		c-5.622,0-10.196,4.574-10.196,10.196s4.574,10.196,10.196,10.196h25.393c14.69,0,26.643,11.951,26.643,26.643
		C412.018,400.004,400.065,411.956,385.375,411.956z"/>
	<path style="fill:#FFB547;" d="M372.679,430.83c-4.541,0-8.223-3.682-8.223-8.223V311.182c0-4.541,3.682-8.223,8.223-8.223
		c4.542,0,8.223,3.682,8.223,8.223v111.425C380.902,427.148,377.22,430.83,372.679,430.83z"/>
</g>
<path style="opacity:0.07;enable-background:new    ;" d="M389.51,470.751c-63.796,0-115.512-51.716-115.512-115.512
	c0-35.713,16.21-67.636,41.668-88.825c-34.935,19.865-58.501,57.419-58.501,100.48c0,63.796,51.716,115.512,115.512,115.512
	c28.083,0,53.823-10.025,73.843-26.688C429.701,465.284,410.245,470.751,389.51,470.751z"/>
</svg>