<svg width="157" height="109" viewBox="0 0 157 109" fill="none" xmlns="http://www.w3.org/2000/svg">
<g clip-path="url(#clip0_531_763)">
<path opacity="0.1" d="M26.7979 16.0284C25.9577 16.9518 25.6343 18.2501 25.2725 19.4707C22.3596 29.3073 15.1818 37.2194 7.00749 42.8709C3.54582 45.2648 -0.66859 48.4752 0.0887462 52.7672C0.496542 55.0723 2.28563 56.7691 3.6148 58.6464C6.40346 62.5775 7.30797 67.9207 5.9788 72.6266C4.46719 77.9809 0.242053 82.977 1.54976 88.391C2.35615 91.7236 5.09422 94.0952 7.7265 96.1337C11.8331 99.3116 16.0705 102.289 20.4387 105.065C23.3669 106.926 26.4821 108.736 29.8947 108.972C32.8995 109.181 35.843 108.146 38.696 107.126C41.1888 106.233 43.7444 105.304 45.7573 103.515C47.0712 102.348 48.1183 100.841 49.5777 99.8856C53.0057 97.6416 57.4086 99.0635 61.3394 100.024C70.6145 102.279 80.5411 101.456 89.367 97.7C102.906 91.9374 113.225 79.836 126.467 73.3431C132.161 70.5506 138.355 68.8177 143.627 65.2213C146.597 63.1736 149.15 60.6718 151.17 57.8286C155.156 52.259 157.311 45.1579 156.689 38.2067C156.066 31.2555 152.578 24.557 147.101 20.6329C141.237 16.4325 133.831 15.648 127.159 13.1263C120.272 10.5186 114.143 6.03906 107.322 3.24664C101.8 0.9907 95.7895 -0.116511 89.7327 0.00627312C83.676 0.129057 77.7264 1.47872 72.3208 3.9562C64.8931 7.3582 57.3673 15.2953 49.0948 15.8979C43.2017 16.3145 31.4001 10.9713 26.7979 16.0284Z" fill="#E5FF70"/>
<path d="M133.09 48.1945C133.09 48.1945 130.858 41.3281 133.509 36.2751C134.636 34.1618 134.976 31.7743 134.478 29.4711C134.231 28.3793 133.875 27.3102 133.414 26.2773" stroke="#535461" stroke-width="2" stroke-miterlimit="10"/>
<path d="M135.071 23.085C135.071 23.9265 133.385 26.3662 133.385 26.3662C133.385 26.3662 131.698 23.9265 131.698 23.085C131.681 22.8755 131.712 22.665 131.789 22.4668C131.866 22.2685 131.987 22.0868 132.145 21.9328C132.302 21.7789 132.494 21.6561 132.706 21.5721C132.919 21.4882 133.148 21.4448 133.38 21.4448C133.612 21.4448 133.842 21.4882 134.054 21.5721C134.267 21.6561 134.458 21.7789 134.616 21.9328C134.774 22.0868 134.895 22.2685 134.972 22.4668C135.048 22.665 135.079 22.8755 135.062 23.085H135.071Z" fill="#E5FF70"/>
<path d="M137.845 27.7449C137.34 28.4517 134.458 29.6723 134.458 29.6723C134.458 29.6723 134.51 26.7965 135.015 26.0897C135.271 25.7808 135.647 25.5715 136.068 25.504C136.488 25.4364 136.921 25.5157 137.279 25.7259C137.637 25.936 137.894 26.2614 137.998 26.6363C138.102 27.0113 138.045 27.4079 137.838 27.7463L137.845 27.7449Z" fill="#E5FF70"/>
<path d="M137.723 35.7111C136.894 36.0902 133.737 35.8278 133.737 35.8278C133.737 35.8278 135.385 33.3686 136.215 32.9895C136.608 32.8417 137.048 32.834 137.448 32.9681C137.847 33.1022 138.175 33.3681 138.367 33.7124C138.559 34.0568 138.6 34.454 138.481 34.8245C138.363 35.195 138.094 35.5112 137.729 35.7098L137.723 35.7111Z" fill="#E5FF70"/>
<path d="M136.134 41.7252C135.387 42.2251 132.22 42.4514 132.22 42.4514C132.22 42.4514 133.385 39.7756 134.133 39.2743C134.493 39.0762 134.922 39.0073 135.335 39.0811C135.749 39.155 136.116 39.3663 136.366 39.6735C136.616 39.9807 136.73 40.3615 136.686 40.7409C136.641 41.1204 136.442 41.471 136.126 41.7238L136.134 41.7252Z" fill="#E5FF70"/>
<path d="M130.932 29.8349C131.599 30.4209 134.703 31.0291 134.703 31.0291C134.703 31.0291 133.937 28.2367 133.276 27.6493C133.122 27.4928 132.934 27.3667 132.723 27.2789C132.513 27.1911 132.285 27.1435 132.053 27.139C131.822 27.1346 131.592 27.1734 131.377 27.253C131.163 27.3326 130.969 27.4514 130.808 27.6018C130.646 27.7523 130.521 27.9313 130.439 28.1276C130.358 28.3239 130.322 28.5333 130.333 28.7428C130.345 28.9523 130.404 29.1574 130.507 29.3453C130.61 29.5332 130.755 29.6999 130.932 29.8349Z" fill="#E5FF70"/>
<path d="M129.17 36.8833C130 37.2623 133.156 36.9999 133.156 36.9999C133.156 36.9999 131.508 34.5407 130.679 34.1617C130.285 34.0138 129.845 34.0061 129.446 34.1402C129.047 34.2743 128.718 34.5402 128.526 34.8845C128.335 35.2289 128.294 35.6262 128.412 35.9966C128.53 36.3671 128.799 36.6834 129.164 36.8819L129.17 36.8833Z" fill="#E5FF70"/>
<path d="M128.496 43.9469C129.242 44.4468 132.41 44.6732 132.41 44.6732C132.41 44.6732 131.245 41.9974 130.497 41.4961C130.321 41.3556 130.115 41.2498 129.892 41.1852C129.669 41.1207 129.434 41.0989 129.201 41.1213C128.968 41.1437 128.743 41.2097 128.54 41.3152C128.337 41.4207 128.161 41.5634 128.022 41.7341C127.883 41.9047 127.785 42.0998 127.734 42.3067C127.682 42.5136 127.679 42.7279 127.725 42.9359C127.77 43.144 127.863 43.3412 127.997 43.515C128.131 43.6888 128.303 43.8354 128.504 43.9456L128.496 43.9469Z" fill="#E5FF70"/>
<path opacity="0.1" d="M135.071 23.085C135.071 23.9265 133.385 26.3662 133.385 26.3662C133.385 26.3662 131.698 23.9265 131.698 23.085C131.681 22.8755 131.712 22.665 131.789 22.4668C131.866 22.2685 131.987 22.0868 132.145 21.9328C132.302 21.7789 132.494 21.6561 132.706 21.5721C132.919 21.4882 133.148 21.4448 133.38 21.4448C133.612 21.4448 133.842 21.4882 134.054 21.5721C134.267 21.6561 134.458 21.7789 134.616 21.9328C134.774 22.0868 134.895 22.2685 134.972 22.4668C135.048 22.665 135.079 22.8755 135.062 23.085H135.071Z" fill="#E5FF70"/>
<path opacity="0.1" d="M137.845 27.7449C137.34 28.4517 134.458 29.6723 134.458 29.6723C134.458 29.6723 134.51 26.7965 135.015 26.0897C135.271 25.7808 135.647 25.5715 136.068 25.504C136.488 25.4364 136.921 25.5157 137.279 25.7259C137.637 25.936 137.894 26.2614 137.998 26.6363C138.102 27.0113 138.045 27.4079 137.838 27.7463L137.845 27.7449Z" fill="#E5FF70"/>
<path opacity="0.1" d="M137.723 35.7111C136.894 36.0902 133.737 35.8278 133.737 35.8278C133.737 35.8278 135.385 33.3686 136.215 32.9895C136.608 32.8417 137.048 32.834 137.448 32.9681C137.847 33.1022 138.175 33.3681 138.367 33.7124C138.559 34.0568 138.6 34.454 138.481 34.8245C138.363 35.195 138.094 35.5112 137.729 35.7098L137.723 35.7111Z" fill="#E5FF70"/>
<path opacity="0.1" d="M136.134 41.7252C135.387 42.2251 132.22 42.4514 132.22 42.4514C132.22 42.4514 133.385 39.7756 134.133 39.2743C134.493 39.0762 134.922 39.0073 135.335 39.0811C135.749 39.155 136.116 39.3663 136.366 39.6735C136.616 39.9807 136.73 40.3615 136.686 40.7409C136.641 41.1204 136.442 41.471 136.126 41.7238L136.134 41.7252Z" fill="#E5FF70"/>
<path opacity="0.1" d="M130.932 29.8349C131.599 30.4209 134.703 31.0291 134.703 31.0291C134.703 31.0291 133.937 28.2367 133.276 27.6493C133.122 27.4928 132.934 27.3667 132.723 27.2789C132.513 27.1911 132.285 27.1435 132.053 27.139C131.822 27.1346 131.592 27.1734 131.377 27.253C131.163 27.3326 130.969 27.4514 130.808 27.6018C130.646 27.7523 130.521 27.9313 130.439 28.1276C130.358 28.3239 130.322 28.5333 130.333 28.7428C130.345 28.9523 130.404 29.1574 130.507 29.3453C130.61 29.5332 130.755 29.6999 130.932 29.8349Z" fill="#E5FF70"/>
<path opacity="0.1" d="M129.17 36.8833C130 37.2623 133.156 36.9999 133.156 36.9999C133.156 36.9999 131.508 34.5407 130.679 34.1617C130.285 34.0138 129.845 34.0061 129.446 34.1402C129.047 34.2743 128.718 34.5402 128.526 34.8845C128.335 35.2289 128.294 35.6262 128.412 35.9966C128.53 36.3671 128.799 36.6834 129.164 36.8819L129.17 36.8833Z" fill="#E5FF70"/>
<path opacity="0.1" d="M128.496 43.9469C129.242 44.4468 132.41 44.6732 132.41 44.6732C132.41 44.6732 131.245 41.9974 130.497 41.4961C130.321 41.3556 130.115 41.2498 129.892 41.1852C129.669 41.1207 129.434 41.0989 129.201 41.1213C128.968 41.1437 128.743 41.2097 128.54 41.3152C128.337 41.4207 128.161 41.5634 128.022 41.7341C127.883 41.9047 127.785 42.0998 127.734 42.3067C127.682 42.5136 127.679 42.7279 127.725 42.9359C127.77 43.144 127.863 43.3412 127.997 43.515C128.131 43.6888 128.303 43.8354 128.504 43.9456L128.496 43.9469Z" fill="#E5FF70"/>
<path d="M142.442 59.1643C142.442 59.1643 140.21 52.2978 142.86 47.2448C143.988 45.1315 144.328 42.744 143.829 40.4408C143.583 39.349 143.227 38.28 142.765 37.2471" stroke="#535461" stroke-width="2" stroke-miterlimit="10"/>
<path d="M144.423 34.0547C144.423 34.8962 142.736 37.3359 142.736 37.3359C142.736 37.3359 141.05 34.8962 141.05 34.0547C141.033 33.8452 141.064 33.6347 141.14 33.4365C141.217 33.2383 141.338 33.0565 141.496 32.9025C141.654 32.7486 141.845 32.6258 142.058 32.5419C142.27 32.4579 142.5 32.4146 142.732 32.4146C142.964 32.4146 143.193 32.4579 143.406 32.5419C143.618 32.6258 143.81 32.7486 143.967 32.9025C144.125 33.0565 144.246 33.2383 144.323 33.4365C144.4 33.6347 144.431 33.8452 144.414 34.0547H144.423Z" fill="#E5FF70"/>
<path d="M147.196 38.7146C146.691 39.4214 143.815 40.6406 143.815 40.6406C143.815 40.6406 143.868 37.7648 144.372 37.0581C144.484 36.8746 144.636 36.7139 144.82 36.5861C145.003 36.4582 145.213 36.3659 145.438 36.3149C145.662 36.2639 145.896 36.2553 146.124 36.2897C146.353 36.324 146.571 36.4005 146.765 36.5144C146.959 36.6284 147.125 36.7773 147.253 36.952C147.381 37.1266 147.468 37.3233 147.509 37.5297C147.549 37.736 147.542 37.9477 147.488 38.1516C147.435 38.3555 147.335 38.5471 147.196 38.7146Z" fill="#E5FF70"/>
<path d="M147.075 46.681C146.245 47.06 143.089 46.7976 143.089 46.7976C143.089 46.7976 144.737 44.3384 145.566 43.9594C145.765 43.8512 145.986 43.7814 146.216 43.7543C146.446 43.7271 146.68 43.7432 146.903 43.8016C147.126 43.8599 147.333 43.9593 147.511 44.0934C147.69 44.2275 147.836 44.3935 147.94 44.5811C148.045 44.7686 148.105 44.9737 148.118 45.1834C148.131 45.3931 148.096 45.603 148.016 45.7999C147.935 45.9969 147.81 46.1766 147.65 46.328C147.489 46.4793 147.295 46.599 147.081 46.6796L147.075 46.681Z" fill="#E5FF70"/>
<path d="M145.485 52.6949C144.739 53.1948 141.571 53.4211 141.571 53.4211C141.571 53.4211 142.736 50.7453 143.485 50.2441C143.845 50.0459 144.273 49.977 144.687 50.0509C145.1 50.1248 145.468 50.3361 145.718 50.6432C145.968 50.9504 146.082 51.3312 146.037 51.7106C145.993 52.0901 145.793 52.4407 145.478 52.6935L145.485 52.6949Z" fill="#E5FF70"/>
<path d="M140.283 40.8045C140.95 41.3905 144.055 41.9987 144.055 41.9987C144.055 41.9987 143.288 39.2062 142.627 38.6189C142.301 38.3702 141.883 38.2428 141.457 38.2622C141.031 38.2816 140.629 38.4464 140.332 38.7234C140.035 39.0004 139.865 39.3691 139.856 39.7553C139.847 40.1414 140 40.5163 140.283 40.8045Z" fill="#E5FF70"/>
<path d="M138.522 47.853C139.351 48.2321 142.508 47.9696 142.508 47.9696C142.508 47.9696 140.86 45.5105 140.03 45.1314C139.637 44.9835 139.197 44.9759 138.797 45.1099C138.398 45.244 138.07 45.5099 137.878 45.8543C137.686 46.1986 137.645 46.5959 137.764 46.9664C137.882 47.3368 138.151 47.6531 138.516 47.8516L138.522 47.853Z" fill="#E5FF70"/>
<path d="M137.847 54.9167C138.594 55.4166 141.761 55.6429 141.761 55.6429C141.761 55.6429 140.596 52.9671 139.848 52.4658C139.673 52.3254 139.467 52.2195 139.244 52.155C139.021 52.0904 138.786 52.0687 138.553 52.0911C138.32 52.1134 138.095 52.1795 137.892 52.285C137.689 52.3905 137.512 52.5331 137.373 52.7038C137.234 52.8745 137.136 53.0695 137.085 53.2764C137.034 53.4833 137.031 53.6976 137.076 53.9057C137.122 54.1137 137.214 54.3109 137.348 54.4847C137.482 54.6585 137.655 54.8052 137.855 54.9153L137.847 54.9167Z" fill="#E5FF70"/>
<path opacity="0.1" d="M144.423 34.0547C144.423 34.8962 142.736 37.3359 142.736 37.3359C142.736 37.3359 141.05 34.8962 141.05 34.0547C141.033 33.8452 141.064 33.6347 141.14 33.4365C141.217 33.2383 141.338 33.0565 141.496 32.9025C141.654 32.7486 141.845 32.6258 142.058 32.5419C142.27 32.4579 142.5 32.4146 142.732 32.4146C142.964 32.4146 143.193 32.4579 143.406 32.5419C143.618 32.6258 143.81 32.7486 143.967 32.9025C144.125 33.0565 144.246 33.2383 144.323 33.4365C144.4 33.6347 144.431 33.8452 144.414 34.0547H144.423Z" fill="#E5FF70"/>
<path opacity="0.1" d="M147.196 38.7146C146.691 39.4214 143.815 40.6406 143.815 40.6406C143.815 40.6406 143.868 37.7648 144.372 37.0581C144.484 36.8746 144.636 36.7139 144.82 36.5861C145.003 36.4582 145.213 36.3659 145.438 36.3149C145.662 36.2639 145.896 36.2553 146.124 36.2897C146.353 36.324 146.571 36.4005 146.765 36.5144C146.959 36.6284 147.125 36.7773 147.253 36.952C147.381 37.1266 147.468 37.3233 147.509 37.5297C147.549 37.736 147.542 37.9477 147.488 38.1516C147.435 38.3555 147.335 38.5471 147.196 38.7146Z" fill="#E5FF70"/>
<path opacity="0.1" d="M147.075 46.681C146.245 47.06 143.089 46.7976 143.089 46.7976C143.089 46.7976 144.737 44.3384 145.566 43.9594C145.765 43.8512 145.986 43.7814 146.216 43.7543C146.446 43.7271 146.68 43.7432 146.903 43.8016C147.126 43.8599 147.333 43.9593 147.511 44.0934C147.69 44.2275 147.836 44.3935 147.94 44.5811C148.045 44.7686 148.105 44.9737 148.118 45.1834C148.131 45.3931 148.096 45.603 148.016 45.7999C147.935 45.9969 147.81 46.1766 147.65 46.328C147.489 46.4793 147.295 46.599 147.081 46.6796L147.075 46.681Z" fill="#E5FF70"/>
<path opacity="0.1" d="M145.485 52.6949C144.739 53.1948 141.571 53.4211 141.571 53.4211C141.571 53.4211 142.736 50.7453 143.485 50.2441C143.845 50.0459 144.273 49.977 144.687 50.0509C145.1 50.1248 145.468 50.3361 145.718 50.6432C145.968 50.9504 146.082 51.3312 146.037 51.7106C145.993 52.0901 145.793 52.4407 145.478 52.6935L145.485 52.6949Z" fill="#E5FF70"/>
<path opacity="0.1" d="M140.283 40.8045C140.95 41.3905 144.055 41.9987 144.055 41.9987C144.055 41.9987 143.288 39.2062 142.627 38.6189C142.301 38.3702 141.883 38.2428 141.457 38.2622C141.031 38.2816 140.629 38.4464 140.332 38.7234C140.035 39.0004 139.865 39.3691 139.856 39.7553C139.847 40.1414 140 40.5163 140.283 40.8045Z" fill="#E5FF70"/>
<path opacity="0.1" d="M138.522 47.853C139.351 48.2321 142.508 47.9696 142.508 47.9696C142.508 47.9696 140.86 45.5105 140.03 45.1314C139.637 44.9835 139.197 44.9759 138.797 45.1099C138.398 45.244 138.07 45.5099 137.878 45.8543C137.686 46.1986 137.645 46.5959 137.764 46.9664C137.882 47.3368 138.151 47.6531 138.516 47.8516L138.522 47.853Z" fill="#E5FF70"/>
<path opacity="0.1" d="M137.847 54.9167C138.594 55.4166 141.761 55.6429 141.761 55.6429C141.761 55.6429 140.596 52.9671 139.848 52.4658C139.673 52.3254 139.467 52.2195 139.244 52.155C139.021 52.0904 138.786 52.0687 138.553 52.0911C138.32 52.1134 138.095 52.1795 137.892 52.285C137.689 52.3905 137.512 52.5331 137.373 52.7038C137.234 52.8745 137.136 53.0695 137.085 53.2764C137.034 53.4833 137.031 53.6976 137.076 53.9057C137.122 54.1137 137.214 54.3109 137.348 54.4847C137.482 54.6585 137.655 54.8052 137.855 54.9153L137.847 54.9167Z" fill="#E5FF70"/>
<path opacity="0.1" d="M82.7772 82.1216C124.418 78.4434 157.645 70.5402 156.991 64.4692C156.337 58.3982 122.051 56.4584 80.41 60.1365C38.7692 63.8147 5.5426 71.7179 6.19627 77.7889C6.84994 83.8599 41.1364 85.7997 82.7772 82.1216Z" fill="#E5FF70"/>
<path d="M150.429 65.4364C153.264 60.1738 152.678 51.6077 152.376 48.7C152.31 48.064 152.258 47.6988 152.258 47.6988C152.258 47.6988 149.759 47.342 150.68 44.6023C151.131 43.261 149.531 42.5195 147.783 42.1126C146.533 41.8419 145.258 41.6788 143.975 41.6252L119.769 40.2714C116.45 35.5002 109.919 36.2667 109.919 36.2667C109.919 36.2667 104.094 35.7182 99.9635 35.6613C99.3367 35.1611 98.6496 34.7265 97.9153 34.3658C97.4778 34.1276 97.0118 33.9352 96.5264 33.7923C95.9362 33.6381 95.3143 33.6111 94.7105 33.7136C94.1068 33.816 93.5379 34.0451 93.0494 34.3824C92.8113 34.5376 92.6174 34.7417 92.4837 34.9781C92.4322 35.0856 92.3937 35.1978 92.3687 35.3128C92.3064 35.5089 92.2553 35.7077 92.2154 35.9085C92.1794 36.0051 92.1278 36.0964 92.0621 36.1793C91.8965 36.3917 91.6114 36.5514 91.5746 36.8083C91.5737 36.8231 91.5737 36.8379 91.5746 36.8527C91.5443 36.9018 91.524 36.9554 91.5148 37.011C91.5037 37.1253 91.531 37.24 91.593 37.3401C91.6022 37.3568 91.6129 37.372 91.6236 37.3873C91.4198 37.6546 91.2535 37.9438 91.1284 38.2482C91.0717 38.2762 91.0169 38.3073 90.9644 38.3413L90.9184 38.3718V38.4565L90.8924 38.4746L90.8356 39.8423L90.8678 39.8645C90.9142 40.5026 91.1268 41.1216 91.4881 41.6709C91.8494 42.2202 92.3493 42.6842 92.9467 43.0249C92.9666 43.1124 92.985 43.2013 93.0034 43.2943C93.0876 43.7428 93.1256 44.1974 93.1168 44.6523H93.0908C92.3702 44.3746 91.1376 44.7828 90.0783 45.2591H76.3543C79.031 42.1404 82.3056 39.7215 82.3056 39.7215V36.9805C79.9662 36.8749 59.4139 45.8173 54.9082 47.7919L54.7089 47.8793L31.5519 48.5292C27.3574 48.5056 23.6903 49.0638 20.5138 49.9733C15.2056 51.4835 10.4356 54.2437 6.69164 57.9715C3.95665 60.6903 2.75779 62.937 2.75779 62.937L2.78385 63.1259L2.75779 63.1744L2.79458 63.2036L3.41854 67.6637L3.8478 70.7324C0.864449 72.4793 4.72931 73.1791 4.72931 73.1791C8.40868 76.0368 14.3279 75.9188 14.3279 75.9188C15.7735 77.7058 19.9818 77.467 19.9818 77.467H42.0718C42.4158 75.6301 42.8765 73.8127 43.4516 72.0238C44.3944 78.1738 49.7525 82.8852 56.2189 82.8852C56.6986 82.885 57.1778 82.8585 57.6539 82.8061C58.13 82.8585 58.6092 82.885 59.0888 82.8852C65.6305 82.8852 71.036 78.0627 71.8869 71.81H72.9677C72.7659 73.207 72.4153 74.583 71.9206 75.9188C91.7754 70.6783 128.724 68.1775 128.724 68.1775C128.877 66.8583 129.046 65.5836 129.228 64.3603C130.751 67.7831 134.202 70.1728 138.218 70.1728C138.583 70.1724 138.948 70.152 139.31 70.1118C139.672 70.152 140.036 70.1724 140.401 70.1728C145.171 70.1728 149.14 66.8028 150.035 62.3344C150.154 63.123 150.221 63.9172 150.237 64.713C150.067 65.4711 149.919 65.9558 149.899 66.0238C150.018 65.8257 150.132 65.623 150.239 65.4156C150.239 65.4961 150.239 65.5795 150.239 65.6628C150.202 65.8016 150.176 65.8794 150.168 65.9058L150.236 65.7919C150.236 65.853 150.236 65.9127 150.236 65.9738C150.221 65.9794 150.302 65.7794 150.429 65.4364Z" fill="url(#paint0_linear_531_763)"/>
<path d="M148.113 46.5269H102.596V63.1578H148.113V46.5269Z" fill="#6F7D95"/>
<path d="M91.0229 38.7384L97.4879 51.8562L110.291 51.1536L110.807 45.7659L111.195 39.441L93.0926 38.269L91.0229 38.7384Z" fill="#4B5C7A"/>
<path d="M91.0229 38.7383C91.0229 38.7383 93.4759 36.6304 96.4546 36.1611C99.4334 35.6918 109.386 36.629 109.386 36.629L110.809 38.8508L110.542 39.9089L91.0229 38.7383Z" fill="#FF4D52"/>
<path d="M115.397 45.4729H69.4927V57.6534H115.397V45.4729Z" fill="#4B5C7A"/>
<path d="M104.103 53.76C105.316 50.0872 102.898 47.6739 102.898 47.6739L98.8908 45.1411C98.8875 45.1498 98.8834 45.1581 98.8785 45.1661C98.3573 44.6129 97.9843 43.958 97.7885 43.2527C97.7763 43.2083 97.7655 43.1624 97.7533 43.1138C98.1196 42.8673 98.4404 42.5697 98.7038 42.2321C99.3569 41.8697 99.6481 41.2865 99.7585 40.7047C100.179 40.1399 100.513 39.5268 100.753 38.8815C100.793 38.7771 100.827 38.671 100.855 38.5635C100.932 38.3634 100.966 38.1518 100.956 37.94C100.923 37.7042 100.837 37.4772 100.701 37.2735C100.027 36.1627 98.8126 35.3892 97.5816 34.7588C97.1513 34.5247 96.693 34.3356 96.2156 34.195C95.6353 34.0435 95.0238 34.0171 94.4302 34.1179C93.8366 34.2187 93.2772 34.4439 92.7969 34.7755C92.5627 34.928 92.3719 35.1289 92.2404 35.3614C92.1896 35.4671 92.1516 35.5775 92.1269 35.6905C92.0674 35.8835 92.0188 36.0791 91.9813 36.2765C91.9479 36.3708 91.8993 36.4602 91.8372 36.5417C91.6731 36.75 91.3941 36.9069 91.3573 37.161C91.3564 37.1758 91.3564 37.1907 91.3573 37.2055C91.3277 37.2537 91.308 37.3064 91.2991 37.361C91.2877 37.4734 91.3145 37.5862 91.3757 37.6845C91.3849 37.7012 91.3956 37.7165 91.4064 37.7317C91.2057 37.9947 91.042 38.2792 90.9189 38.5788C90.8627 38.6063 90.8084 38.6369 90.7564 38.6704L90.7119 38.6996V38.7829L90.6858 38.8009L90.6291 40.1465L90.6598 40.1687C90.705 40.7963 90.9138 41.4052 91.2691 41.9456C91.6243 42.486 92.1158 42.9425 92.7034 43.2777C92.7233 43.3638 92.7417 43.4513 92.7585 43.5429C92.8511 44.0274 92.8881 44.5192 92.8689 45.0106C92.8629 44.9682 92.8629 44.9253 92.8689 44.8829C91.7605 44.4288 89.3429 45.6841 88.3694 46.2395C88.2218 46.3028 88.0842 46.3836 87.96 46.4797L87.9432 46.4908C87.2732 46.9824 85.9502 48.3487 84.9 51.8604C83.4436 56.7607 83.5954 57.8716 82.5345 59.0074C81.4736 60.1433 80.4204 68.1456 80.4204 68.1456L82.556 68.6663L82.8289 67.872C85.3676 69.9688 92.4765 70.9783 92.4765 70.9783L92.6942 70.3659C93.7842 70.7214 95.607 70.1812 95.607 70.1812C98.2715 69.3287 99.2695 67.1653 101.203 64.3118C103.136 61.4582 104.103 53.76 104.103 53.76ZM93.3564 68.5247L98.2776 54.6987C98.7237 56.8454 96.7553 60.2266 96.5805 62.4372C96.4716 63.8591 94.6442 66.6848 93.3564 68.5247Z" fill="url(#paint1_linear_531_763)"/>
<path d="M99.5132 39.2119C99.5132 39.2119 100.37 42.1682 97.8268 42.6833C95.2834 43.1985 96.9591 41.3545 96.9591 41.3545L99.412 39.1897L99.5132 39.2119Z" fill="#472727"/>
<path d="M88.8795 46.2576C88.8795 46.2576 86.9877 46.9519 85.5972 51.6286C84.2067 56.3053 84.3447 57.3606 83.3436 58.4478C82.3425 59.5351 81.3169 67.1639 81.3169 67.1639L83.3191 67.6527L85.0622 62.5538L89.8561 49.0847L88.8795 46.2576Z" fill="#DDE0E4"/>
<path opacity="0.05" d="M88.8795 46.2576C88.8795 46.2576 86.9877 46.9519 85.5972 51.6286C84.2067 56.3053 84.3447 57.3606 83.3436 58.4478C82.3425 59.5351 81.3169 67.1639 81.3169 67.1639L83.3191 67.6527L85.0622 62.5538L89.8561 49.0847L88.8795 46.2576Z" fill="black"/>
<path d="M99.384 45.7297C99.384 45.7297 91.4642 49.3761 92.6232 46.9975C93.1965 45.8228 93.1751 44.605 93.008 43.6649C92.9126 43.1112 92.7454 42.5696 92.5097 42.0514C92.5097 42.0514 97.8939 38.194 97.578 41.3432C97.5024 42.0211 97.5543 42.7056 97.7313 43.3678C98.1974 45.0382 99.384 45.7297 99.384 45.7297Z" fill="#DB8B8B"/>
<path opacity="0.1" d="M97.7317 43.3734C97.2224 43.7439 96.6235 43.9999 95.984 44.1206C95.3445 44.2413 94.6826 44.2231 94.0523 44.0677C93.6837 43.9779 93.3304 43.8429 93.0022 43.6664C92.9068 43.1127 92.7395 42.5711 92.5039 42.0529C92.5039 42.0529 97.888 38.1954 97.5722 41.3447C97.4981 42.0242 97.552 42.7102 97.7317 43.3734Z" fill="black"/>
<path d="M99.1958 41.2319C99.7911 39.2296 98.4815 37.1693 96.2708 36.6301C94.06 36.091 91.7854 37.2771 91.1901 39.2795C90.5949 41.2818 91.9044 43.3421 94.1152 43.8812C96.3259 44.4204 98.6006 43.2342 99.1958 41.2319Z" fill="#DB8B8B"/>
<path opacity="0.1" d="M93.111 38.4246C92.9973 38.4875 92.8707 38.529 92.7388 38.5465C92.607 38.564 92.4726 38.5571 92.3437 38.5264C92.2148 38.4957 92.0941 38.4417 91.9889 38.3676C91.8836 38.2936 91.796 38.201 91.7312 38.0955C91.6744 38.0014 91.6498 37.8941 91.6607 37.7872C91.696 37.5456 91.9597 37.3957 92.1206 37.1957C92.3705 36.8722 92.323 36.4292 92.5039 36.0696C92.6285 35.8499 92.808 35.6597 93.0282 35.5141C93.4763 35.1969 94.0008 34.9802 94.559 34.8817C95.1172 34.7833 95.6933 34.8058 96.24 34.9476C96.6873 35.0798 97.1164 35.2582 97.5186 35.4794C98.6714 36.0751 99.8074 36.8041 100.431 37.8636C100.558 38.058 100.638 38.2741 100.668 38.4982C100.674 38.7402 100.627 38.9811 100.53 39.2064C100.299 39.8286 99.9777 40.4203 99.5744 40.9657C99.4395 40.8139 99.2701 40.6903 99.0777 40.6033C98.9806 40.5617 98.8714 40.5488 98.7658 40.5665C98.6601 40.5842 98.5633 40.6315 98.489 40.7018C98.3556 40.856 98.2744 41.1504 98.072 41.0809C97.9402 41.0365 97.9417 40.8713 97.9478 40.7435C97.9754 40.1881 97.6412 39.6646 97.192 39.2897C96.7428 38.9148 96.1863 38.6676 95.6375 38.4246C95.2435 38.2496 94.7177 37.8483 94.2853 37.7775C93.7488 37.6873 93.4958 38.2094 93.111 38.4246Z" fill="black"/>
<path d="M93.1676 38.2344C93.0539 38.2973 92.9273 38.3388 92.7955 38.3563C92.6636 38.3738 92.5292 38.367 92.4003 38.3362C92.2715 38.3055 92.1508 38.2515 92.0455 38.1774C91.9403 38.1034 91.8526 38.0108 91.7879 37.9053C91.731 37.8112 91.7065 37.7039 91.7174 37.597C91.7526 37.3554 92.0163 37.2055 92.1773 37.0055C92.4272 36.682 92.3797 36.239 92.5606 35.8794C92.6851 35.6597 92.8647 35.4695 93.0849 35.324C93.5329 35.0067 94.0575 34.79 94.6157 34.6915C95.1739 34.5931 95.7499 34.6157 96.2966 34.7574C96.744 34.8896 97.173 35.0681 97.5752 35.2892C98.7281 35.8849 99.8641 36.6139 100.488 37.6734C100.614 37.8678 100.695 38.0839 100.724 38.308C100.731 38.5501 100.684 38.7909 100.586 39.0162C100.356 39.6385 100.034 40.2301 99.6311 40.7755C99.4962 40.6238 99.3268 40.5001 99.1344 40.4131C99.0372 40.3715 98.9281 40.3586 98.8224 40.3763C98.7168 40.394 98.62 40.4414 98.5457 40.5117C98.4123 40.6658 98.331 40.9602 98.1287 40.8907C97.9968 40.8463 97.9983 40.6811 98.0045 40.5533C98.0321 39.9979 97.6979 39.4744 97.2487 39.0995C96.7995 38.7246 96.243 38.4774 95.6941 38.2344C95.3002 38.0594 94.7743 37.6581 94.342 37.5873C93.8054 37.4957 93.5524 38.0192 93.1676 38.2344Z" fill="#472727"/>
<path d="M95.3383 46.227C95.3383 46.227 98.6176 45.6452 98.7601 45.1689L102.51 47.567C102.51 47.567 104.767 49.8567 103.612 53.3615C103.612 53.3615 102.673 60.7056 100.845 63.4314C99.0177 66.1572 97.9675 69.6883 95.464 70.5131C95.464 70.5131 93.0571 69.1079 92.263 69.1245C92.263 69.1245 96.3394 63.7744 96.5142 61.6679C96.6889 59.5615 98.5516 56.3316 98.1438 54.2877L92.6248 69.8258C92.6248 69.8258 83.733 68.5761 82.8315 65.9031C82.8315 65.9031 83.5981 64.8602 83.4555 63.8035C83.3129 62.7468 86.8099 54.7973 86.8099 54.7973L88.484 46.5075C88.484 46.5075 91.7954 44.4122 93.1138 44.9565C93.1077 44.9481 92.8685 45.9826 95.3383 46.227Z" fill="#DDE0E4"/>
<g opacity="0.1">
<path d="M96.5329 39.7812C95.7235 38.7815 94.1797 39.6021 93.9267 39.7451L93.5297 39.709C93.1832 39.3674 92.1208 38.4593 91.1227 39.1272L91.0798 39.1564L91.02 40.438L91.0629 40.4686C91.3512 40.6702 91.6781 40.8217 92.0272 40.9157C92.2483 40.9746 92.4816 40.985 92.7079 40.9462C92.8754 40.9112 93.0324 40.8434 93.1678 40.7474C93.3031 40.6514 93.4136 40.5297 93.4913 40.3908L93.6983 40.4033L93.8516 40.3769C93.8823 40.5246 93.9474 40.6646 94.0426 40.7877C94.1377 40.9108 94.2608 41.0141 94.4035 41.0907C95.0888 41.442 96.0899 41.0907 96.1313 41.0837L96.1834 41.0657L96.5513 39.8257L96.5329 39.7812ZM96.0132 40.9088C95.8093 40.9712 95.0397 41.1767 94.5231 40.9088C94.3944 40.8357 94.2861 40.7369 94.2063 40.6199C94.1266 40.5029 94.0776 40.3708 94.0632 40.2339L94.0448 40.1325L93.709 40.195L93.3718 40.1839L93.3396 40.2422C93.278 40.3684 93.1853 40.48 93.0687 40.5686C92.952 40.6572 92.8144 40.7204 92.6665 40.7532C92.0886 40.8657 91.4202 40.4602 91.2454 40.345L91.296 39.2619C92.1637 38.7329 93.1203 39.591 93.3963 39.8715L93.4254 39.9007L93.985 39.9506L94.0187 39.9298C94.034 39.9215 95.4245 39.0758 96.2171 39.7562C96.2564 39.7893 96.2928 39.825 96.326 39.8632L96.0132 40.9088Z" fill="black"/>
<path d="M99.044 40.4255L96.4378 40.2297L96.2232 40.1922L96.3198 39.8645C96.2866 39.8263 96.2502 39.7906 96.2109 39.7576L96.5267 39.7853L98.6592 39.9742L99.044 40.4255Z" fill="black"/>
</g>
<path d="M96.5603 39.6924C95.7508 38.6926 94.207 39.5132 93.9541 39.6563L93.557 39.6202C93.2105 39.2786 92.1481 38.3705 91.1501 39.0384L91.1071 39.0675L91.0474 40.3492L91.0903 40.3797C91.3786 40.5813 91.7055 40.7329 92.0546 40.8268C92.2756 40.8857 92.5089 40.8962 92.7353 40.8574C92.9028 40.8224 93.0597 40.7545 93.1951 40.6585C93.3305 40.5625 93.4409 40.4408 93.5187 40.302L93.7256 40.3145L93.8789 40.2881C93.9096 40.4357 93.9747 40.5758 94.0699 40.6989C94.1651 40.8219 94.2881 40.9252 94.4308 41.0018C95.1161 41.3531 96.1172 41.0018 96.1586 40.9948L96.2107 40.9768L96.5787 39.7368L96.5603 39.6924ZM96.0406 40.8199C95.8367 40.8824 95.0671 41.0879 94.5504 40.8199C94.4218 40.7469 94.3134 40.648 94.2336 40.531C94.1539 40.414 94.1049 40.2819 94.0905 40.145L94.0721 40.0437L93.7364 40.1062L93.4037 40.0867L93.3715 40.145C93.311 40.2719 93.2191 40.3845 93.103 40.474C92.9868 40.5636 92.8495 40.6278 92.7015 40.6616C92.1236 40.7741 91.4552 40.3686 91.2804 40.2534L91.331 39.1703C92.1987 38.6412 93.1553 39.4994 93.4313 39.7798L93.4604 39.809L94.02 39.859L94.0537 39.8382C94.069 39.8298 95.4595 38.9842 96.2521 39.6646C96.2914 39.6976 96.3278 39.7334 96.361 39.7715L96.0406 40.8199Z" fill="#472727"/>
<path d="M99.0685 40.3366L96.4715 40.1408L96.2569 40.1033L96.3535 39.7756C96.3203 39.7375 96.2839 39.7017 96.2446 39.6687L96.5604 39.6965L98.6929 39.8853L99.0685 40.3366Z" fill="#472727"/>
<path d="M81.259 54.9597H35.7422V71.5906H81.259V54.9597Z" fill="#6F7D95"/>
<path d="M56.5731 82.4826C63.5879 82.4826 69.2745 76.8458 69.2745 69.8924C69.2745 62.9391 63.5879 57.3022 56.5731 57.3022C49.5582 57.3022 43.8716 62.9391 43.8716 69.8924C43.8716 76.8458 49.5582 82.4826 56.5731 82.4826Z" fill="#4B5C7A"/>
<path opacity="0.05" d="M56.5731 82.4826C63.5879 82.4826 69.2745 76.8458 69.2745 69.8924C69.2745 62.9391 63.5879 57.3022 56.5731 57.3022C49.5582 57.3022 43.8716 62.9391 43.8716 69.8924C43.8716 76.8458 49.5582 82.4826 56.5731 82.4826Z" fill="black"/>
<path d="M59.3958 82.4826C66.4106 82.4826 72.0973 76.8458 72.0973 69.8924C72.0973 62.9391 66.4106 57.3022 59.3958 57.3022C52.381 57.3022 46.6943 62.9391 46.6943 69.8924C46.6943 76.8458 52.381 82.4826 59.3958 82.4826Z" fill="#4B5C7A"/>
<path opacity="0.05" d="M59.1135 75.0689C62.231 75.0689 64.7583 72.7799 64.7583 69.9562C64.7583 67.1325 62.231 64.8435 59.1135 64.8435C55.996 64.8435 53.4688 67.1325 53.4688 69.9562C53.4688 72.7799 55.996 75.0689 59.1135 75.0689Z" fill="black"/>
<path d="M59.1135 71.4906C60.0491 71.4906 60.8075 70.8037 60.8075 69.9562C60.8075 69.1088 60.0491 68.4219 59.1135 68.4219C58.1779 68.4219 57.4194 69.1088 57.4194 69.9562C57.4194 70.8037 58.1779 71.4906 59.1135 71.4906Z" stroke="#6F7D95" stroke-width="2" stroke-miterlimit="10"/>
<path d="M59.1136 67.6554C59.3472 67.6554 59.5367 67.4838 59.5367 67.2722C59.5367 67.0605 59.3472 66.8889 59.1136 66.8889C58.8799 66.8889 58.6904 67.0605 58.6904 67.2722C58.6904 67.4838 58.8799 67.6554 59.1136 67.6554Z" fill="#6F7D95"/>
<path d="M61.7011 68.3057C61.8801 68.1696 61.9035 67.9279 61.7533 67.7657C61.603 67.6036 61.3362 67.5824 61.1571 67.7185C60.9781 67.8546 60.9548 68.0963 61.105 68.2584C61.2552 68.4206 61.5221 68.4417 61.7011 68.3057Z" fill="#6F7D95"/>
<path d="M62.7111 70.1614C62.7517 69.953 62.598 69.7542 62.3678 69.7175C62.1377 69.6807 61.9183 69.8199 61.8777 70.0283C61.8371 70.2368 61.9908 70.4356 62.2209 70.4723C62.451 70.5091 62.6705 70.3699 62.7111 70.1614Z" fill="#6F7D95"/>
<path d="M61.2964 72.366C61.4988 72.2601 61.5681 72.0258 61.4513 71.8425C61.3344 71.6592 61.0757 71.5963 60.8733 71.7022C60.6709 71.808 60.6016 72.0424 60.7184 72.2257C60.8352 72.409 61.094 72.4718 61.2964 72.366Z" fill="#6F7D95"/>
<path d="M59.0688 72.5734C59.1488 72.3745 59.0355 72.1546 58.816 72.0822C58.5964 72.0098 58.3536 72.1124 58.2736 72.3113C58.1937 72.5101 58.3069 72.7301 58.5265 72.8025C58.7461 72.8749 58.9889 72.7723 59.0688 72.5734Z" fill="#6F7D95"/>
<path d="M56.918 71.3897C57.1376 71.3173 57.2508 71.0974 57.1709 70.8985C57.091 70.6996 56.8482 70.5971 56.6286 70.6695C56.409 70.7419 56.2957 70.9618 56.3757 71.1607C56.4556 71.3596 56.6984 71.4621 56.918 71.3897Z" fill="#6F7D95"/>
<path d="M57.1153 68.9954C57.2322 68.8121 57.1628 68.5777 56.9605 68.4719C56.7581 68.3661 56.4993 68.4289 56.3825 68.6122C56.2656 68.7955 56.335 69.0299 56.5373 69.1357C56.7397 69.2415 56.9985 69.1787 57.1153 68.9954Z" fill="#6F7D95"/>
<path d="M150.661 60.1625C150.227 62.8758 149.021 65.8459 149.021 65.8459C149.029 65.6608 149.034 65.4779 149.036 65.2974C149.036 65.0641 149.036 64.8336 149.036 64.6031C148.883 57.1243 144.383 52.5101 141.481 50.3009C140.727 49.7187 139.915 49.2 139.057 48.7512H146.945C146.945 48.7512 150.048 54.4902 150.695 57.3006C150.882 58.0894 150.83 59.1072 150.661 60.1625Z" fill="#FF4D52"/>
<path opacity="0.05" d="M150.661 60.1625C150.227 62.8758 149.021 65.8459 149.021 65.8459C149.029 65.6608 149.034 65.4779 149.036 65.2974C149.036 65.0641 149.036 64.8336 149.036 64.6031C148.883 57.1243 144.383 52.5101 141.481 50.3009C140.727 49.7187 139.915 49.2 139.057 48.7512H146.945C146.945 48.7512 150.048 54.4902 150.695 57.3006C150.882 58.0894 150.83 59.1072 150.661 60.1625Z" fill="black"/>
<path d="M137.213 69.9812C142.548 69.9812 146.872 65.6941 146.872 60.4057C146.872 55.1172 142.548 50.8301 137.213 50.8301C131.878 50.8301 127.553 55.1172 127.553 60.4057C127.553 65.6941 131.878 69.9812 137.213 69.9812Z" fill="#4B5C7A"/>
<path opacity="0.05" d="M137.213 69.9812C142.548 69.9812 146.872 65.6941 146.872 60.4057C146.872 55.1172 142.548 50.8301 137.213 50.8301C131.878 50.8301 127.553 55.1172 127.553 60.4057C127.553 65.6941 131.878 69.9812 137.213 69.9812Z" fill="black"/>
<path d="M139.359 69.9812C144.694 69.9812 149.019 65.6941 149.019 60.4057C149.019 55.1172 144.694 50.8301 139.359 50.8301C134.024 50.8301 129.699 55.1172 129.699 60.4057C129.699 65.6941 134.024 69.9812 139.359 69.9812Z" fill="#4B5C7A"/>
<path opacity="0.05" d="M139.144 64.3422C141.515 64.3422 143.437 62.6014 143.437 60.4542C143.437 58.3069 141.515 56.5662 139.144 56.5662C136.773 56.5662 134.852 58.3069 134.852 60.4542C134.852 62.6014 136.773 64.3422 139.144 64.3422Z" fill="black"/>
<path d="M139.144 61.6206C139.855 61.6206 140.432 61.0984 140.432 60.4542C140.432 59.8101 139.855 59.2878 139.144 59.2878C138.433 59.2878 137.856 59.8101 137.856 60.4542C137.856 61.0984 138.433 61.6206 139.144 61.6206Z" stroke="#6F7D95" stroke-width="2" stroke-miterlimit="10"/>
<path d="M139.144 58.7045C139.322 58.7045 139.466 58.574 139.466 58.4129C139.466 58.2519 139.322 58.1213 139.144 58.1213C138.966 58.1213 138.822 58.2519 138.822 58.4129C138.822 58.574 138.966 58.7045 139.144 58.7045Z" fill="#6F7D95"/>
<path d="M141.113 59.199C141.249 59.0955 141.267 58.9116 141.153 58.7882C141.039 58.6648 140.835 58.6487 140.699 58.7523C140.563 58.8558 140.545 59.0397 140.66 59.1631C140.774 59.2864 140.977 59.3025 141.113 59.199Z" fill="#6F7D95"/>
<path d="M141.88 60.6117C141.911 60.4531 141.794 60.3019 141.619 60.2739C141.444 60.2459 141.277 60.3518 141.246 60.5104C141.215 60.669 141.332 60.8203 141.507 60.8482C141.683 60.8762 141.85 60.7703 141.88 60.6117Z" fill="#6F7D95"/>
<path d="M140.806 62.2877C140.96 62.2072 141.013 62.0289 140.924 61.8894C140.835 61.7499 140.638 61.7021 140.484 61.7827C140.33 61.8632 140.277 62.0415 140.366 62.181C140.455 62.3205 140.652 62.3683 140.806 62.2877Z" fill="#6F7D95"/>
<path d="M139.111 62.445C139.172 62.2937 139.086 62.1263 138.919 62.0712C138.752 62.0162 138.567 62.0942 138.506 62.2455C138.445 62.3969 138.531 62.5642 138.699 62.6193C138.866 62.6743 139.05 62.5963 139.111 62.445Z" fill="#6F7D95"/>
<path d="M137.474 61.5438C137.641 61.4887 137.728 61.3213 137.667 61.17C137.606 61.0187 137.421 60.9406 137.254 60.9957C137.087 61.0508 137.001 61.2181 137.062 61.3695C137.123 61.5208 137.307 61.5988 137.474 61.5438Z" fill="#6F7D95"/>
<path d="M137.627 59.7232C137.716 59.5837 137.663 59.4053 137.509 59.3248C137.355 59.2443 137.158 59.2921 137.069 59.4316C136.98 59.571 137.033 59.7494 137.187 59.8299C137.341 59.9104 137.538 59.8626 137.627 59.7232Z" fill="#6F7D95"/>
<path d="M5.16185 71.1809L3.99365 62.8647H17.8296L24.9415 68.6037L21.4507 75.9826C21.4507 75.9826 7.3664 73.8747 5.16185 71.1809Z" fill="#FF4D52"/>
<path opacity="0.05" d="M24.9462 68.6038L21.4554 75.9827C21.4554 75.9827 7.36655 73.8748 5.162 71.181L5.11141 70.8186L4.03826 63.1287L4.02753 63.0523L4.00146 62.8662H17.8374L24.9462 68.6038Z" fill="black"/>
<path d="M82.2308 37.3332V40.027C82.2308 40.027 75.0805 45.3036 73.3788 50.2816C73.0818 51.09 72.9696 51.9447 73.0492 52.7936C73.6962 58.2979 54.4316 48.3418 54.4316 48.3418L55.2886 47.9641C59.7177 46.0298 79.9296 37.2277 82.2308 37.3332Z" fill="#7597CE"/>
<path d="M98.5244 50.3342C98.5244 50.3342 105.221 47.3543 106.295 45.1493C106.44 44.8535 106.576 44.5549 106.735 44.2647C107.399 43.0553 108.794 40.2184 108.092 38.8562C107.188 37.0997 110.291 39.0909 110.291 39.0909L108.48 47.4043L104.083 49.626L98.394 50.3342" fill="#FF4D52"/>
<path opacity="0.05" d="M98.5244 50.3342C98.5244 50.3342 105.221 47.3543 106.295 45.1493C106.44 44.8535 106.576 44.5549 106.735 44.2647C107.399 43.0553 108.794 40.2184 108.092 38.8562C107.188 37.0997 110.291 39.0909 110.291 39.0909L108.48 47.4043L104.083 49.626L98.394 50.3342" fill="black"/>
<path opacity="0.05" d="M24.946 68.6036L21.4552 75.9825C21.4552 75.9825 7.36627 73.8746 5.16172 71.1808L5.11112 70.8184C5.16785 70.7837 5.22764 70.7476 5.29049 70.7129C5.29049 70.7129 9.55702 73.758 19.2567 74.462C19.2567 74.462 25.0824 70.2449 15.6356 65.5613C15.6356 65.5613 7.41839 65.7945 4.03338 63.1299L3.99658 63.1021L4.02265 63.0535C4.04513 63.0137 4.08141 62.9517 4.13149 62.8674H17.8325L24.946 68.6036Z" fill="black"/>
<path opacity="0.05" d="M73.0492 52.7922C73.6962 58.2979 54.4316 48.3418 54.4316 48.3418L55.2886 47.9641C55.8559 48.5112 58.1202 50.3566 62.6474 50.1567C65.5602 50.0275 69.9831 50.1456 73.3865 50.2802C73.0869 51.0881 72.9721 51.9428 73.0492 52.7922Z" fill="black"/>
<path opacity="0.05" d="M81.2605 54.9597V71.5906H72.8041C73.3621 67.7221 73.0401 62.0831 67.6161 58.8505C65.5931 57.6528 63.2442 56.9845 60.8284 56.9193C58.4127 56.8542 56.024 57.3946 53.9258 58.4811C50.3707 60.3196 46.3954 64.0576 43.8689 71.5906H35.7437V54.9597H81.2605Z" fill="black"/>
<path opacity="0.05" d="M150.661 60.1625C150.342 61.9982 149.83 63.7811 149.037 65.3002C148.935 65.5048 148.824 65.7043 148.703 65.8987C148.723 65.8306 148.869 65.3557 149.037 64.6087C149.859 60.9706 151.265 50.9035 141.846 50.3286C141.723 50.3217 141.602 50.3147 141.481 50.3106C140.727 49.725 139.916 49.2031 139.057 48.7512H146.945C146.945 48.7512 150.048 54.4902 150.695 57.3006C150.882 58.0894 150.83 59.1072 150.661 60.1625Z" fill="black"/>
<path d="M148.959 65.785C149.082 65.3837 153.451 50.9092 142.101 50.2164C130.593 49.5137 129.17 57.3605 127.878 68.0192C127.878 68.0192 91.544 70.4784 72.0157 75.6327C72.0157 75.6327 76.7038 63.9965 67.8764 58.7338C65.8534 57.5362 63.5045 56.8679 61.0887 56.8027C58.673 56.7375 56.2843 57.278 54.1861 58.3645C49.8322 60.6167 44.8451 65.7239 42.6636 77.1546H20.937C20.937 77.1546 16.7977 77.3893 15.3765 75.6272C15.3765 75.6272 9.55085 75.7438 5.93741 72.9334C5.93741 72.9334 2.05874 72.2307 5.16167 70.4742C5.16167 70.4742 9.55851 73.5193 19.2567 74.2233C19.2567 74.2233 25.0824 70.0063 15.6356 65.3226C15.6356 65.3226 7.35703 65.5573 3.99807 62.8634C3.99807 62.8634 5.177 60.6542 7.86754 57.9812C11.5475 54.3148 16.2365 51.5992 21.4551 50.1122C24.9715 49.1276 28.6367 48.6487 32.3169 48.6931L55.1397 48.0488C55.1397 48.0488 57.3443 50.626 62.6395 50.3913C67.9347 50.1566 78.286 50.7426 78.286 50.7426H78.3887L99.6861 49.8692C100.298 49.791 100.903 49.675 101.497 49.5221C104.584 48.7625 110.441 46.4589 109.384 40.0256L142.876 41.9002C144.138 41.9527 145.392 42.1131 146.621 42.3793C148.341 42.7792 149.914 43.5096 149.471 44.8287C148.566 47.5225 151.022 47.8738 151.022 47.8738C151.022 47.8738 151.075 48.2335 151.139 48.8583C151.446 51.8049 152.048 60.664 148.959 65.785Z" fill="#FF4D52"/>
<path opacity="0.05" d="M46.5409 52.9102C46.5409 52.9102 32.5747 53.0268 23.3916 60.4084H28.5642C28.5642 60.4084 43.0471 57.012 46.5379 54.3182L46.5409 52.9102Z" fill="black"/>
<path d="M46.4106 52.792C46.4106 52.792 32.4443 52.9086 23.2612 60.2903H28.4338C28.4338 60.2903 42.9167 56.8938 46.4075 54.2L46.4106 52.792Z" fill="#FFEC9F"/>
<path opacity="0.05" d="M21.5841 50.2302V53.3781L9.81933 58.2978L7.99805 58.0993C11.6776 54.433 16.3661 51.7174 21.5841 50.2302Z" fill="black"/>
<path d="M21.4538 50.1135V53.2614L9.6875 58.1797L7.86621 57.9812C11.5464 54.3152 16.2354 51.6001 21.4538 50.1135Z" fill="#FFEC9F"/>
<path opacity="0.05" d="M38.135 64.3879C38.135 64.3879 31.7988 67.901 31.1519 75.6354H34.773C34.773 75.6354 36.1957 67.2026 40.3334 64.3879H38.135Z" fill="black"/>
<path opacity="0.05" d="M113.007 64.6227L80.1611 68.1358C80.1611 68.1358 77.9887 55.6109 78.3904 50.7384L99.6878 49.865C100.299 49.7881 100.903 49.6735 101.497 49.522V50.6842L117.531 47.1711C117.531 47.1711 120.248 50.8009 113.007 64.6227Z" fill="black"/>
<path d="M109.386 36.629C109.386 36.629 116.369 35.8098 119.472 41.1974L109.485 40.8489L109.386 36.629Z" fill="#FF4D52"/>
<path opacity="0.05" d="M118.988 43.0859C118.713 43.8649 118.92 44.7216 120.51 45.3145C121.833 45.8089 123.385 45.2368 123.837 44.0079C124.101 43.2914 123.92 42.4805 122.494 41.8209C121.068 41.1613 119.468 41.7251 118.988 43.0859Z" fill="black"/>
<path d="M4.24365 64.6199C4.24365 64.6199 12.5314 68.5079 18.4797 67.036" stroke="#FF4D52" stroke-miterlimit="10"/>
<path d="M4.53613 66.7195C4.53613 66.7195 9.89114 70.4603 20.7146 69.591" stroke="#FF4D52" stroke-miterlimit="10"/>
<path d="M4.7832 68.4814C4.7832 68.4814 10.0953 72.6569 21.0107 71.3336" stroke="#FF4D52" stroke-miterlimit="10"/>
<path opacity="0.05" d="M119.072 40.5684C119.072 40.5684 114.752 43.9467 110.809 45.4742C110.809 45.4742 116.797 46.4392 119.072 40.5684Z" fill="black"/>
<path opacity="0.1" d="M73.3037 50.512C73.3037 50.512 93.8039 52.2657 101.561 50.6258C101.561 50.6258 101.975 50.8744 99.5054 49.8718L73.3037 50.512Z" fill="black"/>
<path opacity="0.05" d="M151.141 48.8581C149.863 48.0986 147.838 46.5226 148.114 44.7688C148.252 43.8898 147.565 43.0678 146.623 42.3777C148.343 42.7776 149.916 43.508 149.473 44.8271C148.568 47.5209 151.024 47.8723 151.024 47.8723C151.024 47.8723 151.075 48.2333 151.141 48.8581Z" fill="black"/>
<path d="M48.1044 61.0832C48.1167 60.6194 48.1044 60.1376 48.0661 59.6946C48.0661 59.6099 48.0508 59.528 48.0416 59.4475C48.3298 59.6446 48.5015 59.7946 48.5015 59.7946L48.2485 47.7362L46.8534 41.4196C46.8534 36.9401 44.1905 35.6779 44.1905 35.6779C44.1905 35.6779 42.7954 35.103 42.4152 34.3004C42.035 33.4978 38.6653 31.801 38.6638 31.801C38.6371 31.5087 38.6269 31.2153 38.6331 30.922C38.6331 30.8457 38.6331 30.7665 38.6408 30.6874C39.4856 30.18 40.0984 29.4122 40.3654 28.5266C40.6324 27.641 40.5355 26.6976 40.0926 25.8718C40.2796 25.8718 40.4314 25.801 40.5019 25.5497C40.7258 24.754 40.5096 23.5557 40.0006 22.9197C39.8918 22.7867 39.7691 22.6635 39.6342 22.5517C39.4763 22.4082 39.3099 22.2724 39.136 22.1449C38.7006 21.8172 38.2161 21.4728 37.6765 21.5006C37.3704 21.5369 37.0762 21.6315 36.8134 21.7783C35.4653 22.4208 34.1208 23.0688 32.7799 23.7223C32.2847 23.9653 31.7742 24.2208 31.4277 24.6568C31.0812 25.0928 30.9417 25.651 30.8451 26.1995C30.7639 26.5711 30.7448 26.9517 30.7884 27.3284C30.829 27.6713 31.0022 27.99 31.2775 28.2282C31.333 28.289 31.3963 28.3435 31.466 28.3907C31.7389 28.5712 32.09 28.6156 32.3751 28.7614C32.5907 29.3284 32.9516 29.8409 33.4284 30.2569C33.4284 30.3277 33.4176 30.3958 33.4115 30.4735C33.3946 30.6721 33.3686 30.8901 33.3348 31.1109C33.3348 31.1109 32.3981 31.0887 31.003 32.8105C29.608 34.5323 26.5648 34.7628 26.5648 34.7628C26.5648 34.7628 25.4242 34.3032 24.1564 39.4715C22.8885 44.6397 22.5083 48.0806 23.1415 48.6583C23.4103 48.8684 23.7134 49.0399 24.0398 49.1665C25.1146 49.6578 26.2711 49.9862 27.4632 50.1385C27.4784 50.1799 27.5041 50.2175 27.5383 50.2482L27.6288 51.2493C27.7054 53.3627 27.7943 57.602 27.3222 58.5421C26.6875 59.8057 27.4494 60.6097 27.4494 60.6097L27.6027 60.6C27.631 60.6436 27.6628 60.6854 27.6978 60.7249L28.311 60.6874C28.2665 63.048 28.1469 66.3223 27.8311 67.0415C27.3237 68.1899 27.8311 74.5065 27.8311 74.5065L26.9435 85.8761C26.9435 85.8761 26.4575 91.8109 26.9128 92.4982C26.6645 93.7326 26.2183 96.0849 26.3103 96.6709C26.4376 97.4748 29.3535 98.6232 29.3535 98.6232C29.3535 98.6232 32.7768 99.3175 34.4249 99.0828C35.2864 98.962 35.6283 98.4343 35.6314 97.9719C36.749 98.1344 38.2039 98.2899 39.116 98.1622C40.7641 97.9331 40.5111 96.2098 39.6235 96.3251C38.7358 96.4404 37.721 94.8241 36.9667 94.0201C36.5834 93.6146 36.2645 92.8898 36.0468 92.2691C36.2072 92.2472 36.3544 92.1761 36.4638 92.0677C36.844 91.4929 37.4787 86.2108 37.4787 86.2108L39.1268 77.024C39.1268 77.024 40.0144 72.5444 40.7748 71.5114C41.3497 70.731 42.0687 64.9073 42.3861 62.1024H42.4137H42.4229L42.4566 62.0038L42.9334 60.6097C43.1879 61.0165 43.8287 61.2179 44.5753 61.304C44.4956 61.5983 44.4297 61.8386 44.3913 61.976C44.2012 62.6703 46.973 63.8131 47.6414 63.2396C47.922 62.9994 48.0676 62.1288 48.1014 61.1762H48.1244L48.1044 61.0832ZM31.4461 92.401C31.4032 92.6246 31.3603 92.8578 31.3173 93.0953C31.2207 92.8176 31.1441 92.5676 31.092 92.3829C31.2177 92.3871 31.3357 92.3927 31.4461 92.401Z" fill="url(#paint2_linear_531_763)"/>
<path d="M35.6975 90.0071C35.6975 90.0071 36.1865 91.9983 36.9239 92.7717C37.6613 93.5452 38.6333 95.0934 39.4872 94.9837C40.3411 94.874 40.5864 96.532 38.9982 96.7528C37.4099 96.9735 34.1138 96.3098 34.1138 96.3098C34.1138 96.3098 31.3052 95.1989 31.1841 94.4297C31.063 93.6604 31.9169 89.6738 31.9169 89.6738L35.6975 90.0071Z" fill="#53526B"/>
<path opacity="0.05" d="M35.6975 90.0071C35.6975 90.0071 36.1865 91.9983 36.9239 92.7717C37.6613 93.5452 38.6333 95.0934 39.4872 94.9837C40.3411 94.874 40.5864 96.532 38.9982 96.7528C37.4099 96.9735 34.1138 96.3098 34.1138 96.3098C34.1138 96.3098 31.3052 95.1989 31.1841 94.4297C31.063 93.6604 31.9169 89.6738 31.9169 89.6738L35.6975 90.0071Z" fill="black"/>
<path d="M31.1794 90.8917C31.1794 90.8917 31.6685 92.8829 32.4059 93.6563C33.1433 94.4298 34.1152 95.978 34.9692 95.8683C35.8231 95.7586 36.0684 97.4166 34.4801 97.6374C32.8918 97.8581 29.5958 97.1958 29.5958 97.1958C29.5958 97.1958 26.7872 96.0849 26.6661 95.3157C26.5449 94.5464 27.3989 90.5598 27.3989 90.5598L31.1794 90.8917Z" fill="#53526B"/>
<path d="M42.2911 60.5903C42.2911 60.5903 41.3145 70.1007 40.5817 71.0963C39.8489 72.0919 38.995 76.4048 38.995 76.4048L37.4083 85.2513C37.4083 85.2513 36.795 90.3391 36.4317 90.8917C36.0684 91.4444 31.5366 91.2069 31.5366 91.2069L34.3483 61.9178L42.2911 60.5903Z" fill="#5F5D7E"/>
<path opacity="0.05" d="M42.2911 60.5903C42.2911 60.5903 41.3145 70.1007 40.5817 71.0963C39.8489 72.0919 38.995 76.4048 38.995 76.4048L37.4083 85.2513C37.4083 85.2513 36.795 90.3391 36.4317 90.8917C36.0684 91.4444 31.5366 91.2069 31.5366 91.2069L34.3483 61.9178L42.2911 60.5903Z" fill="black"/>
<path d="M44.2444 56.0566L43.9255 56.9745L42.2008 61.9331L42.1671 62.0275H42.1579C41.9264 62.0747 37.0389 63.0925 35.9842 63.405C35.9273 63.4209 35.8715 63.4399 35.8171 63.4619C35.328 63.6827 34.7179 71.6447 34.7179 71.6447C34.7179 71.6447 34.3515 79.1652 34.1046 79.7179C33.8578 80.2705 32.8782 91.6596 32.2726 91.3291C31.6671 90.9986 27.2672 91.3291 27.2672 91.3291C26.7781 90.8862 27.2672 84.9153 27.2672 84.9153L28.1211 73.9664C28.1211 73.9664 27.632 67.8845 28.1211 66.7778C28.6101 65.6711 28.6101 58.2631 28.6101 58.2631L38.6103 56.8606L39.5762 56.7218L44.2444 56.0566Z" fill="#5F5D7E"/>
<path opacity="0.02" d="M43.9254 56.9743L42.2007 61.9329L42.1593 62.0301C41.9278 62.0773 37.0404 63.0952 35.9857 63.4076H35.8799L38.6103 56.8605L38.6885 56.6716L39.5761 56.723L43.9254 56.9743Z" fill="black"/>
<path opacity="0.1" d="M32.5227 33.9395C32.5227 33.9395 37.0406 38.3634 39.8492 34.7129L42.5351 36.3722L42.0461 38.9161L43.6328 58.1589C43.6328 58.1589 39.4813 58.0478 36.5516 58.9323C35.7356 59.1945 34.8539 59.2401 34.0104 59.0637C33.1668 58.8873 32.3964 58.4963 31.7899 57.9367L32.2789 41.017L31.1797 35.8196L32.5227 33.9395Z" fill="black"/>
<path d="M32.5226 33.6077C32.5226 33.6077 37.0405 38.0316 39.8491 34.3811L42.5351 36.0404L42.046 38.5843L43.6343 57.8327C43.6343 57.8327 39.4827 57.7216 36.553 58.6061C35.7371 58.8683 34.8554 58.9138 34.0118 58.7374C33.1682 58.5611 32.3978 58.1701 31.7913 57.6105L32.2804 40.6908L31.1812 35.4933L32.5226 33.6077Z" fill="#53526B"/>
<path d="M41.5396 53.3086V54.0043H41.7864V53.5405H42.6832V54.0043H42.93V53.31L41.5396 53.3086Z" fill="#E82127"/>
<path d="M41.7604 53.0838H42.7079C42.7699 53.0703 42.8267 53.0417 42.8722 53.0011C42.9176 52.9604 42.9498 52.9093 42.9654 52.8533H41.5044C41.5202 52.9093 41.5525 52.9603 41.5978 53.0009C41.6432 53.0415 41.6999 53.0702 41.7619 53.0838" fill="#E82127"/>
<path d="M40.7948 54.0044C40.8485 53.9855 40.8962 53.955 40.9339 53.9156C40.9716 53.8761 40.998 53.8289 41.0109 53.7781H39.9056V52.8533H39.6572V54.0044H40.7932" fill="#E82127"/>
<path d="M37.8176 53.0796H38.6929C38.7553 53.0654 38.8126 53.0372 38.8598 52.9977C38.9069 52.9581 38.9423 52.9085 38.9628 52.8533H37.5677V53.5281H38.7052V53.7669H37.813C37.7449 53.7833 37.6814 53.8125 37.6267 53.8528C37.572 53.893 37.5273 53.9432 37.4956 54.0002H38.9474V53.3059H37.8114V53.0782" fill="#E82127"/>
<path d="M35.6574 53.0823H36.6048C36.6669 53.0688 36.7237 53.0403 36.7691 52.9996C36.8145 52.959 36.8468 52.9079 36.8624 52.8518H35.4014C35.4171 52.9078 35.4494 52.9588 35.4948 52.9995C35.5402 53.0401 35.5969 53.0687 35.6589 53.0823" fill="#E82127"/>
<path d="M35.6574 53.5364H36.6048C36.667 53.5231 36.7239 53.4945 36.7693 53.4539C36.8147 53.4132 36.8469 53.362 36.8624 53.3059H35.4014C35.4171 53.3619 35.4494 53.4129 35.4948 53.4536C35.5402 53.4942 35.5969 53.5228 35.6589 53.5364" fill="#E82127"/>
<path d="M35.6574 54.0044H36.6048C36.6669 53.991 36.7237 53.9624 36.7691 53.9217C36.8145 53.8811 36.8468 53.83 36.8624 53.7739H35.4014C35.4171 53.8299 35.4494 53.881 35.4948 53.9216C35.5402 53.9622 35.5969 53.9908 35.6589 54.0044" fill="#E82127"/>
<path d="M33.1938 52.8542C33.21 52.9097 33.2423 52.9602 33.2873 53.0005C33.3324 53.0408 33.3885 53.0694 33.4499 53.0834H33.8485L33.8684 53.0903V54.0012H34.1168V53.0903L34.1398 53.0834H34.5383C34.5995 53.069 34.6554 53.0402 34.7004 53C34.7453 52.9598 34.7778 52.9095 34.7944 52.8542H33.1938Z" fill="#E82127"/>
<path d="M38.0797 50.5775L39.323 44.2414C40.5081 44.2414 40.8822 44.3595 40.9374 44.8399C40.9374 44.8399 41.733 44.5719 42.1332 44.0262C41.1429 43.6236 40.0789 43.3905 38.995 43.3389L38.0751 44.3511L37.1553 43.3389C36.0713 43.3905 35.0073 43.6235 34.0171 44.0262C34.4172 44.5719 35.2129 44.8399 35.2129 44.8399C35.2665 44.3595 35.6406 44.2414 36.818 44.24L38.0721 50.5775" fill="#E82127"/>
<path d="M38.0797 43.0458C39.522 43.0296 40.9518 43.2894 42.2757 43.8081C42.3733 43.6592 42.4569 43.5031 42.5256 43.3415C39.6742 42.2953 36.4852 42.2953 33.6338 43.3415C33.707 43.502 33.7921 43.6579 33.8883 43.8081C35.2121 43.2894 36.642 43.0296 38.0843 43.0458" fill="#E82127"/>
<path d="M41.9248 56.498C41.9248 56.498 41.9248 59.3738 42.6576 60.5902C43.3904 61.8065 47.6631 61.1456 47.6631 61.1456L46.8092 57.0535L41.9248 56.498Z" fill="#D39999"/>
<path d="M47.1986 63.1342C46.5547 63.6896 43.8856 62.5788 44.0696 61.9178C44.1984 61.4499 44.6491 59.7752 44.9051 58.8255L45.083 58.1576C45.083 58.1576 46.6467 57.7146 47.1986 58.1576C47.3994 58.3186 47.5405 58.9532 47.6064 59.7197C47.7199 61.0513 47.6079 62.7829 47.1986 63.1342Z" fill="#FDC2CC"/>
<path d="M41.3129 35.5975L37.0402 38.5829C37.0402 38.5829 30.6918 38.251 32.2785 35.4864C32.9694 34.2705 33.3864 32.9422 33.505 31.579C33.5566 31.076 33.5566 30.5698 33.505 30.0668C33.505 30.0668 39.3659 25.2068 38.6331 30.7306C38.5754 31.1545 38.5416 31.5809 38.5319 32.008C38.4507 36.1543 41.3129 35.5975 41.3129 35.5975Z" fill="#FDC2CC"/>
<path opacity="0.1" d="M38.6271 30.7319C38.5693 31.1559 38.5355 31.5823 38.5259 32.0094C37.8682 32.404 37.0964 32.6136 36.3075 32.612C35.2145 32.612 34.4096 31.6484 33.6829 31.0082C33.7642 30.0904 33.5005 30.0682 33.5005 30.0682C33.5005 30.0682 39.3599 25.2012 38.6271 30.7319Z" fill="black"/>
<path d="M36.3077 32.3899C38.5328 32.3899 40.3366 30.7561 40.3366 28.7407C40.3366 26.7253 38.5328 25.0916 36.3077 25.0916C34.0826 25.0916 32.2788 26.7253 32.2788 28.7407C32.2788 30.7561 34.0826 32.3899 36.3077 32.3899Z" fill="#FDC2CC"/>
<path opacity="0.1" d="M33.4393 32.2246C33.4393 32.2246 32.7678 32.2802 31.4249 33.9381C30.0819 35.5961 27.143 35.8182 27.143 35.8182C27.143 35.8182 26.0438 35.3753 24.8235 40.3519C23.6031 45.3285 23.2367 48.6458 23.8469 49.1985C24.4571 49.7512 26.8992 50.526 28.1196 50.526C28.1196 50.526 28.486 57.4924 27.8758 58.7088C27.2656 59.9252 27.9985 60.7 27.9985 60.7L33.3642 60.3682C33.3642 60.3682 35.1962 58.2673 35.5626 54.6181C35.929 50.9689 37.1493 40.5727 36.5392 39.3563C35.929 38.1399 33.2431 35.0434 33.3642 34.7115C33.4853 34.3797 33.4393 32.2246 33.4393 32.2246Z" fill="black"/>
<path d="M33.4287 32.1912C33.4287 32.1912 32.5257 32.169 31.1828 33.8283C29.8398 35.4876 26.9101 35.7084 26.9101 35.7084C26.9101 35.7084 25.8109 35.2655 24.5906 40.2421C23.3702 45.2187 23.0038 48.536 23.6171 49.0845C24.2303 49.633 26.6694 50.412 27.8897 50.412C27.8897 50.412 28.2561 57.3785 27.646 58.5948C27.0358 59.8112 27.7686 60.5861 27.7686 60.5861L33.1344 60.2542C33.1344 60.2542 34.9664 58.1533 35.3328 54.5041C35.6992 50.855 36.9195 40.4587 36.3093 39.2423C35.6992 38.026 33.0132 34.9294 33.1344 34.5976C33.2555 34.2657 33.4287 32.1912 33.4287 32.1912Z" fill="#D39999"/>
<path d="M30.209 46.4352C30.209 46.4352 36.3183 40.0894 35.4597 44.444C34.8465 47.5405 32.5301 49.1999 31.4308 49.5317C30.3316 49.8636 30.209 46.4352 30.209 46.4352Z" fill="#FDC2CC"/>
<path opacity="0.1" d="M47.6065 59.7197C47.0224 59.3156 45.9202 58.6866 44.9053 58.8255L45.0831 58.1576C45.0831 58.1576 46.6468 57.7146 47.1987 58.1576C47.4011 58.3186 47.5406 58.9532 47.6065 59.7197Z" fill="black"/>
<path opacity="0.1" d="M38.5657 32.8882C38.5657 32.8882 41.6794 34.7128 42.0458 35.4876C42.4122 36.2624 43.7552 36.8151 43.7552 36.8151C43.7552 36.8151 46.3184 38.0314 46.3184 42.3443L47.6614 48.4263L41.5537 56.1662C41.5537 56.1662 40.8209 48.4249 40.4545 46.5448C40.0881 44.6646 39.6005 41.1293 39.6005 41.1293C39.6005 41.1293 37.7685 39.0284 38.0138 38.4758C38.2591 37.9231 38.5657 32.8882 38.5657 32.8882Z" fill="black"/>
<path d="M38.5553 32.855C38.5553 32.855 41.8023 34.4921 42.1672 35.2655C42.532 36.039 43.8781 36.5875 43.8781 36.5875C43.8781 36.5875 46.4414 37.8038 46.4414 42.1167L47.7843 48.1987L48.0281 59.8099C48.0281 59.8099 45.8297 57.9298 44.2429 58.8143C42.6562 59.6988 41.6796 55.9386 41.6796 55.9386C41.6796 55.9386 40.9468 48.1973 40.5804 46.3172C40.214 44.437 39.7265 40.9017 39.7265 40.9017C39.7265 40.9017 37.8945 38.8092 38.1398 38.2537C38.3851 37.6983 38.5553 32.855 38.5553 32.855Z" fill="#D39999"/>
<path opacity="0.1" d="M39.8446 24.3028C39.6379 24.0646 39.3989 23.851 39.1332 23.6668C38.7132 23.3502 38.2487 23.0198 37.7274 23.0475C37.4325 23.0831 37.1493 23.1749 36.8965 23.3169C35.5985 23.9362 34.3041 24.562 33.0132 25.1943C32.5365 25.4275 32.0443 25.6747 31.7117 26.0941C31.379 26.5134 31.2441 27.0522 31.1506 27.5798C31.0723 27.9372 31.0537 28.3033 31.0954 28.6657C31.1334 29.021 31.3238 29.3486 31.6258 29.578C31.9738 29.8071 32.4506 29.8085 32.7419 30.1084C32.9105 30.282 32.9841 30.525 33.1037 30.736C33.2233 30.9471 33.4302 31.1526 33.6663 31.1151C33.9024 31.0776 34.045 30.8513 34.0787 30.6222C34.0937 30.39 34.0788 30.157 34.0343 29.9279C33.9883 29.5113 34.0465 29.0698 34.3133 28.7601C34.4972 28.5491 34.7609 28.4213 34.9388 28.2047C35.365 27.6826 35.1703 26.8161 35.6378 26.326C35.7736 26.1978 35.9445 26.1046 36.133 26.0558C36.3215 26.007 36.521 26.0044 36.711 26.0482C37.0897 26.1204 37.4361 26.3065 37.7841 26.4648C38.2543 26.6796 38.7468 26.8517 39.2544 26.9786C39.6805 27.0841 40.1742 27.3368 40.3198 26.8231C40.5421 26.0691 40.3275 24.9152 39.8446 24.3028Z" fill="black"/>
<path d="M39.722 24.1917C39.5153 23.9535 39.2763 23.7399 39.0107 23.5558C38.5906 23.2392 38.1261 22.9087 37.6049 22.9365C37.31 22.972 37.0268 23.0638 36.7739 23.2058C35.477 23.8251 34.3992 23.2392 32.8907 25.0832C32.5687 25.4775 31.9218 25.5636 31.5891 25.983C31.2564 26.4023 31.1215 26.9411 31.028 27.4687C30.9497 27.8262 30.9311 28.1922 30.9728 28.5546C31.0108 28.9099 31.2013 29.2375 31.5032 29.4669C31.8513 29.696 32.328 29.6974 32.6193 29.9973C32.788 30.1709 32.8615 30.4139 32.9811 30.625C33.1007 30.836 33.3077 31.0415 33.5438 31.004C33.7799 30.9666 33.9224 30.7402 33.9562 30.5111C33.9712 30.2789 33.9563 30.0459 33.9117 29.8168C33.8657 29.4002 33.924 28.9587 34.1907 28.649C34.3747 28.438 34.6384 28.3102 34.8162 28.0936C35.2424 27.5715 35.0477 26.705 35.5153 26.2149C35.6511 26.0867 35.8219 25.9935 36.0105 25.9447C36.199 25.896 36.3984 25.8933 36.5884 25.9372C36.9671 26.0094 37.3136 26.1954 37.6616 26.3537C38.1317 26.5685 38.6242 26.7406 39.1318 26.8675C39.558 26.973 40.0516 27.2257 40.1973 26.712C40.4211 25.958 40.2126 24.8041 39.722 24.1917Z" fill="#865A61"/>
<path d="M28.7373 40.574C28.7373 40.574 28.6147 44.6661 28.0045 45.2187C27.3944 45.7714 28.3709 46.4351 28.3709 46.4351L30.8131 45.8797C30.8131 45.8797 30.1999 49.5289 32.7662 49.0873C32.7662 49.0873 31.0569 50.5245 29.3475 50.7466C27.6381 50.9688 27.7562 50.4162 27.7562 50.4162L25.1929 47.6515L28.7373 40.574Z" fill="#D39999"/>
<path opacity="0.1" d="M28.7173 41.071C28.7173 41.071 27.0892 44.8313 28.311 46.3795L30.997 45.8241C30.997 45.8241 28.5548 46.4879 28.9212 45.1604C29.2876 43.8329 28.7173 41.071 28.7173 41.071Z" fill="black"/>
<path opacity="0.1" d="M27.8223 50.3607C27.8223 50.3607 31.3637 50.5815 32.3402 49.9177C31.055 50.8093 29.5363 51.3835 27.9326 51.584L27.8223 50.3607Z" fill="black"/>
<path opacity="0.1" d="M43.0869 43.2832C43.0869 43.2832 44.9189 48.3709 44.7963 49.1444C44.6736 49.9178 44.4299 58.4339 44.4299 58.4339L44.0635 58.3228L44.1861 49.0333L43.0869 43.2832Z" fill="black"/>
<path d="M120.219 57.6702C120.219 57.6702 122.902 62.4399 120.715 65.049C118.529 67.6582 120.915 74.769 120.915 74.769" stroke="#6C63FF" stroke-miterlimit="10"/>
<path d="M121.013 56.1858C121.013 57.105 120.268 57.8521 120.268 57.8521C120.268 57.8521 119.522 57.1064 119.522 56.1858C119.522 55.2652 120.268 54.5195 120.268 54.5195C120.268 54.5195 121.013 55.2666 121.013 56.1858Z" fill="#E5FF70"/>
<path d="M121.609 57.6702C121.609 57.6702 118.926 62.4399 121.113 65.049C123.299 67.6582 120.913 74.769 120.913 74.769" stroke="#6C63FF" stroke-miterlimit="10"/>
<path d="M120.813 56.1858C120.813 57.105 121.559 57.8521 121.559 57.8521C121.559 57.8521 122.304 57.1064 122.304 56.1858C122.304 55.2652 121.559 54.5195 121.559 54.5195C121.559 54.5195 120.813 55.2666 120.813 56.1858Z" fill="#E5FF70"/>
<path opacity="0.1" d="M120.813 56.1858C120.813 57.105 121.559 57.8521 121.559 57.8521C121.559 57.8521 122.304 57.1064 122.304 56.1858C122.304 55.2652 121.559 54.5195 121.559 54.5195C121.559 54.5195 120.813 55.2666 120.813 56.1858Z" fill="black"/>
<path d="M122.702 57.6702C122.702 57.6702 125.385 62.4399 123.199 65.049C121.013 67.6582 123.398 74.769 123.398 74.769" stroke="#6C63FF" stroke-miterlimit="10"/>
<path d="M123.496 56.1858C123.496 57.105 122.751 57.8521 122.751 57.8521C122.751 57.8521 122.006 57.1064 122.006 56.1858C122.006 55.2652 122.751 54.5195 122.751 54.5195C122.751 54.5195 123.496 55.2666 123.496 56.1858Z" fill="#E5FF70"/>
<path d="M123.079 60.0071C122.375 60.6695 121.267 60.7389 121.267 60.7389C121.267 60.7389 121.301 59.7336 122.004 59.0726C122.708 58.4116 123.817 58.3408 123.817 58.3408C123.817 58.3408 123.783 59.3448 123.079 60.0071Z" fill="#E5FF70"/>
<path d="M123.149 63.298C122.445 63.9604 121.336 64.0298 121.336 64.0298C121.336 64.0298 121.37 63.0245 122.074 62.3635C122.778 61.7026 123.88 61.6304 123.88 61.6304C123.88 61.6304 123.852 62.6343 123.149 63.298Z" fill="#E5FF70"/>
<path d="M119.333 65.1073C119.998 65.8016 119.975 66.8069 119.975 66.8069C119.975 66.8069 118.873 66.6861 118.207 65.9918C117.542 65.2976 117.565 64.2922 117.565 64.2922C117.565 64.2922 118.667 64.413 119.333 65.1073Z" fill="#E5FF70"/>
<path d="M119.95 58.0909C120.797 58.5991 121.071 59.5739 121.071 59.5739C121.071 59.5739 119.972 59.7239 119.127 59.2212C118.282 58.7186 118.006 57.7382 118.006 57.7382C118.006 57.7382 119.104 57.5827 119.95 58.0909Z" fill="#E5FF70"/>
<path opacity="0.1" d="M119.95 58.0909C120.797 58.5991 121.071 59.5739 121.071 59.5739C121.071 59.5739 119.972 59.7239 119.127 59.2212C118.282 58.7186 118.006 57.7382 118.006 57.7382C118.006 57.7382 119.104 57.5827 119.95 58.0909Z" fill="black"/>
<path d="M124.093 57.6702C124.093 57.6702 121.41 62.4399 123.596 65.049C125.782 67.6582 123.397 74.769 123.397 74.769" stroke="#6C63FF" stroke-miterlimit="10"/>
<path d="M123.298 56.1858C123.298 57.105 124.043 57.8521 124.043 57.8521C124.043 57.8521 124.788 57.1064 124.788 56.1858C124.788 55.2652 124.043 54.5195 124.043 54.5195C124.043 54.5195 123.298 55.2666 123.298 56.1858Z" fill="#E5FF70"/>
<path opacity="0.1" d="M123.298 56.1858C123.298 57.105 124.043 57.8521 124.043 57.8521C124.043 57.8521 124.788 57.1064 124.788 56.1858C124.788 55.2652 124.043 54.5195 124.043 54.5195C124.043 54.5195 123.298 55.2666 123.298 56.1858Z" fill="black"/>
<path d="M123.513 60.0778C122.8 60.7332 122.747 61.7441 122.747 61.7441C122.747 61.7441 123.855 61.6872 124.568 61.0318C125.281 60.3764 125.334 59.3655 125.334 59.3655C125.334 59.3655 124.224 59.4224 123.513 60.0778Z" fill="#E5FF70"/>
<path opacity="0.1" d="M123.513 60.0778C122.8 60.7332 122.747 61.7441 122.747 61.7441C122.747 61.7441 123.855 61.6872 124.568 61.0318C125.281 60.3764 125.334 59.3655 125.334 59.3655C125.334 59.3655 124.224 59.4224 123.513 60.0778Z" fill="black"/>
<path d="M124.91 64.6367C124.197 65.2921 124.143 66.3029 124.143 66.3029C124.143 66.3029 125.251 66.246 125.964 65.5906C126.677 64.9352 126.731 63.9243 126.731 63.9243C126.731 63.9243 125.622 63.9785 124.91 64.6367Z" fill="#E5FF70"/>
<path d="M122.854 63.6325C122.854 63.6325 124.468 61.3275 126.736 61.272" stroke="#6C63FF" stroke-miterlimit="10"/>
<path d="M121.597 62.24C121.597 62.24 119.983 59.9349 117.715 59.8794" stroke="#6C63FF" stroke-miterlimit="10"/>
<path d="M121.387 65.5307C121.387 65.5307 123.001 63.2257 125.268 63.1702" stroke="#6C63FF" stroke-miterlimit="10"/>
<path d="M126.661 61.6385C126.892 61.6385 127.079 61.4688 127.079 61.2595C127.079 61.0501 126.892 60.8804 126.661 60.8804C126.43 60.8804 126.242 61.0501 126.242 61.2595C126.242 61.4688 126.43 61.6385 126.661 61.6385Z" fill="#E5FF70"/>
<path d="M117.753 60.2779C117.985 60.2779 118.172 60.1082 118.172 59.8989C118.172 59.6895 117.985 59.5198 117.753 59.5198C117.522 59.5198 117.335 59.6895 117.335 59.8989C117.335 60.1082 117.522 60.2779 117.753 60.2779Z" fill="#E5FF70"/>
<path d="M122.575 66.2903C122.575 66.2903 120.961 63.9852 118.693 63.9297" stroke="#6C63FF" stroke-miterlimit="10"/>
<path d="M118.732 64.3282C118.963 64.3282 119.15 64.1585 119.15 63.9491C119.15 63.7398 118.963 63.5701 118.732 63.5701C118.5 63.5701 118.313 63.7398 118.313 63.9491C118.313 64.1585 118.5 64.3282 118.732 64.3282Z" fill="#E5FF70"/>
<path d="M125.299 63.5687C125.531 63.5687 125.718 63.399 125.718 63.1896C125.718 62.9803 125.531 62.8105 125.299 62.8105C125.068 62.8105 124.881 62.9803 124.881 63.1896C124.881 63.399 125.068 63.5687 125.299 63.5687Z" fill="#E5FF70"/>
<path d="M131.501 71.9959C131.501 71.9959 127.61 71.2905 126.572 70.3505C125.534 69.4104 120.864 67.7705 120.346 68.9411C119.828 70.1116 113.341 74.1149 117.747 74.8189C122.153 75.5229 128.125 75.7589 129.422 75.2882C130.719 74.8175 131.501 71.9959 131.501 71.9959Z" fill="#A8A8A8"/>
<path opacity="0.2" d="M117.747 74.3829C122.158 75.0883 128.125 75.3229 129.422 74.8522C130.409 74.494 131.096 72.7694 131.367 71.9751L131.498 72.0001C131.498 72.0001 130.719 74.8203 129.422 75.2896C128.125 75.759 122.158 75.5243 117.747 74.8203C116.475 74.6162 116.11 74.1385 116.248 73.5345C116.36 73.9274 116.803 74.2315 117.747 74.3829Z" fill="black"/>
<path d="M17.3727 83.7517C17.3727 83.7517 18.6574 85.2791 16.7794 87.5703C14.9014 89.8614 13.353 91.8068 13.98 93.2412C13.98 93.2412 16.8131 88.9741 19.1189 88.9144C21.4246 88.8547 19.9084 86.3178 17.3727 83.7517Z" fill="#E5FF70"/>
<path opacity="0.1" d="M17.3728 83.7517C17.4848 83.8989 17.573 84.0597 17.635 84.2294C19.8855 86.6233 21.0828 88.8575 18.9212 88.9144C16.9067 88.9672 14.4906 92.2289 13.9111 93.0538C13.9303 93.1174 13.9533 93.1799 13.9801 93.2412C13.9801 93.2412 16.8132 88.9741 19.119 88.9144C21.4247 88.8547 19.9085 86.3178 17.3728 83.7517Z" fill="black"/>
<path d="M19.7612 85.69C19.7612 86.226 19.6953 86.662 19.6079 86.662C19.5205 86.662 19.4546 86.2274 19.4546 85.69C19.4546 85.1527 19.5374 85.4123 19.6186 85.4123C19.6999 85.4123 19.7612 85.1554 19.7612 85.69Z" fill="#FFD037"/>
<path d="M20.5798 86.3303C20.0601 86.5872 19.6078 86.7469 19.5695 86.676C19.5312 86.6052 19.919 86.3497 20.4388 86.0942C20.9585 85.8387 20.753 86.0248 20.7929 86.0942C20.8328 86.1637 21.0995 86.0734 20.5798 86.3303Z" fill="#FFD037"/>
<path d="M10.5856 83.7517C10.5856 83.7517 9.30089 85.2791 11.1789 87.5703C13.0569 89.8614 14.6053 91.8068 13.9783 93.2398C13.9783 93.2398 11.1452 88.9727 8.83943 88.913C6.5337 88.8533 8.0499 86.3178 10.5856 83.7517Z" fill="#E5FF70"/>
<path opacity="0.1" d="M10.5856 83.7517C10.4736 83.8989 10.3854 84.0597 10.3234 84.2294C8.0729 86.6233 6.87557 88.8575 9.0372 88.9144C11.0517 88.9672 13.4678 92.2289 14.0473 93.0538C14.0281 93.1174 14.0051 93.1799 13.9783 93.2412C13.9783 93.2412 11.1452 88.9741 8.83943 88.9144C6.5337 88.8547 8.0499 86.3178 10.5856 83.7517Z" fill="black"/>
<path d="M8.19727 85.69C8.19727 86.226 8.26319 86.662 8.35057 86.662C8.43796 86.662 8.50388 86.2274 8.50388 85.69C8.50388 85.1527 8.42109 85.4123 8.33984 85.4123C8.25859 85.4123 8.19727 85.1554 8.19727 85.69Z" fill="#FFD037"/>
<path d="M7.37887 86.3303C7.89858 86.5872 8.35083 86.7469 8.38916 86.676C8.42749 86.6052 8.03962 86.3497 7.51991 86.0942C7.0002 85.8387 7.20563 86.0248 7.16577 86.0942C7.12591 86.1637 6.85916 86.0734 7.37887 86.3303Z" fill="#FFD037"/>
<path d="M8.60645 93.0398C8.60645 93.0398 12.1984 92.9398 13.2808 92.2413C14.3631 91.5429 18.7998 90.7139 19.0742 91.8248C19.3487 92.9356 24.4722 97.3943 20.4172 97.4235C16.3622 97.4527 10.995 96.8514 9.91415 96.2557C8.83334 95.66 8.60645 93.0398 8.60645 93.0398Z" fill="#A8A8A8"/>
<path opacity="0.2" d="M20.4912 97.039C16.4362 97.0681 11.069 96.4669 9.98816 95.8712C9.1649 95.4171 8.83683 93.7883 8.72798 93.0371H8.6084C8.6084 93.0371 8.83529 95.6615 9.91611 96.2572C10.9969 96.8529 16.3642 97.4555 20.4192 97.425C21.5904 97.4167 21.9936 97.039 21.9722 96.4808C21.8081 96.8224 21.362 97.032 20.4912 97.039Z" fill="black"/>
</g>
<defs>
<linearGradient id="paint0_linear_531_763" x1="77.6788" y1="82.8908" x2="77.6788" y2="33.6548" gradientUnits="userSpaceOnUse">
<stop stop-color="#808080" stop-opacity="0.25"/>
<stop offset="0.54" stop-color="#808080" stop-opacity="0.12"/>
<stop offset="1" stop-color="#808080" stop-opacity="0.1"/>
</linearGradient>
<linearGradient id="paint1_linear_531_763" x1="89.3778" y1="70.4059" x2="98.0959" y2="34.6588" gradientUnits="userSpaceOnUse">
<stop stop-color="#808080" stop-opacity="0.25"/>
<stop offset="0.54" stop-color="#808080" stop-opacity="0.12"/>
<stop offset="1" stop-color="#808080" stop-opacity="0.1"/>
</linearGradient>
<linearGradient id="paint2_linear_531_763" x1="35.6743" y1="99.1203" x2="35.6743" y2="21.4978" gradientUnits="userSpaceOnUse">
<stop stop-color="#808080" stop-opacity="0.25"/>
<stop offset="0.54" stop-color="#808080" stop-opacity="0.12"/>
<stop offset="1" stop-color="#808080" stop-opacity="0.1"/>
</linearGradient>
<clipPath id="clip0_531_763">
<rect width="157" height="109" fill="white"/>
</clipPath>
</defs>
</svg>
