<svg xmlns="http://www.w3.org/2000/svg" width="466" height="452" viewBox="0 0 466 452" version="1.1"><path d="M 229.500 25.652 C 201.769 27.845, 176.426 34.671, 152.288 46.450 C 89.478 77.098, 46.708 137.197, 38.051 206.974 C 36.495 219.521, 36.756 247.185, 38.554 260.073 C 48.090 328.445, 91.495 387.933, 153.500 417.611 C 226.634 452.615, 313.261 441.782, 375.500 389.849 C 413.140 358.441, 437.472 315.873, 446.578 265.500 C 448.760 253.430, 449.582 222.260, 448.070 208.932 C 437.938 119.651, 371.591 47.128, 284 29.592 C 265.468 25.881, 245.165 24.414, 229.500 25.652 M 226 64.620 C 147.984 74.356, 89.146 130.717, 76.841 207.500 C 74.766 220.447, 75.259 247.358, 77.824 261.180 C 89.053 321.684, 131.748 371.244, 189.203 390.470 C 207.296 396.524, 217.290 398.200, 238.500 398.735 C 254.626 399.143, 259.315 398.904, 269.500 397.160 C 307.691 390.618, 337.786 374.679, 364.594 346.795 C 406.952 302.737, 421.568 237.285, 402.071 178.970 C 383.020 121.991, 335.527 79.763, 276.612 67.422 C 266.997 65.408, 260.892 64.812, 247 64.534 C 237.375 64.341, 227.925 64.380, 226 64.620" stroke="none" fill="#e0af3c" fill-rule="evenodd"/><path d="M 228.250 25.689 C 229.213 25.941, 230.787 25.941, 231.750 25.689 C 232.713 25.438, 231.925 25.232, 230 25.232 C 228.075 25.232, 227.287 25.438, 228.250 25.689 M 253.762 25.707 C 255.006 25.946, 256.806 25.937, 257.762 25.687 C 258.718 25.437, 257.700 25.241, 255.500 25.252 C 253.300 25.263, 252.518 25.468, 253.762 25.707 M 226 64.620 C 147.984 74.356, 89.146 130.717, 76.841 207.500 C 74.766 220.447, 75.259 247.358, 77.824 261.180 C 89.053 321.684, 131.748 371.244, 189.203 390.470 C 207.296 396.524, 217.290 398.200, 238.500 398.735 C 254.626 399.143, 259.315 398.904, 269.500 397.160 C 307.691 390.618, 337.786 374.679, 364.594 346.795 C 406.952 302.737, 421.568 237.285, 402.071 178.970 C 383.020 121.991, 335.527 79.763, 276.612 67.422 C 266.997 65.408, 260.892 64.812, 247 64.534 C 237.375 64.341, 227.925 64.380, 226 64.620 M 272.846 138.250 C 271.024 139.732, 259.709 152.092, 219.522 196.500 C 203.097 214.650, 187.936 231.402, 185.829 233.728 C 181.120 238.926, 180.735 242.860, 184.635 245.927 C 187.109 247.874, 188.540 248, 208.135 248 C 223.075 248, 229 248.323, 229 249.139 C 229 249.765, 219.477 267.147, 207.837 287.765 C 196.198 308.383, 186.475 326.293, 186.232 327.566 C 185.640 330.663, 189.976 335, 193.664 335 C 196.728 335, 196.718 335.009, 257.018 273.094 C 275.983 253.621, 292.512 236.321, 293.750 234.650 C 296.917 230.373, 296.681 225.794, 293.084 221.766 L 290.168 218.500 270.084 218.192 C 259.038 218.022, 250 217.736, 250 217.557 C 250 217.377, 257.650 201.337, 267 181.912 C 277.900 159.267, 284 145.467, 284 143.452 C 284 141.678, 283.204 139.589, 282.171 138.655 C 280.010 136.699, 275.018 136.483, 272.846 138.250 M 36.382 231.500 C 36.384 238.100, 36.546 240.670, 36.741 237.211 C 36.937 233.752, 36.936 228.352, 36.738 225.211 C 36.540 222.070, 36.380 224.900, 36.382 231.500 M 449.365 231.500 C 449.368 237, 449.536 239.122, 449.738 236.216 C 449.941 233.311, 449.939 228.811, 449.734 226.216 C 449.528 223.622, 449.363 226, 449.365 231.500 M 96.500 378 C 99.209 380.750, 101.650 383, 101.925 383 C 102.200 383, 100.209 380.750, 97.500 378 C 94.791 375.250, 92.350 373, 92.075 373 C 91.800 373, 93.791 375.250, 96.500 378 M 388.946 377.750 L 385.500 381.500 389.250 378.054 C 391.313 376.158, 393 374.471, 393 374.304 C 393 373.540, 392.154 374.260, 388.946 377.750 M 224.269 437.693 C 225.242 437.947, 226.592 437.930, 227.269 437.656 C 227.946 437.382, 227.150 437.175, 225.500 437.195 C 223.850 437.215, 223.296 437.439, 224.269 437.693" stroke="none" fill="#ecc945" fill-rule="evenodd"/><path d="M 96.453 85.250 L 92.500 89.500 96.750 85.547 C 100.702 81.871, 101.460 81, 100.703 81 C 100.540 81, 98.627 82.912, 96.453 85.250 M 272.846 138.250 C 271.024 139.732, 259.709 152.092, 219.522 196.500 C 203.097 214.650, 187.936 231.402, 185.829 233.728 C 181.120 238.926, 180.735 242.860, 184.635 245.927 C 187.109 247.874, 188.540 248, 208.135 248 C 223.075 248, 229 248.323, 229 249.139 C 229 249.765, 219.477 267.147, 207.837 287.765 C 196.198 308.383, 186.475 326.293, 186.232 327.566 C 185.640 330.663, 189.976 335, 193.664 335 C 196.728 335, 196.718 335.009, 257.018 273.094 C 275.983 253.621, 292.512 236.321, 293.750 234.650 C 296.917 230.373, 296.681 225.794, 293.084 221.766 L 290.168 218.500 270.084 218.192 C 259.038 218.022, 250 217.736, 250 217.557 C 250 217.377, 257.650 201.337, 267 181.912 C 277.900 159.267, 284 145.467, 284 143.452 C 284 141.678, 283.204 139.589, 282.171 138.655 C 280.010 136.699, 275.018 136.483, 272.846 138.250 M 449.195 219.500 C 449.215 221.150, 449.439 221.704, 449.693 220.731 C 449.947 219.758, 449.930 218.408, 449.656 217.731 C 449.382 217.054, 449.175 217.850, 449.195 219.500 M 449.195 243.500 C 449.215 245.150, 449.439 245.704, 449.693 244.731 C 449.947 243.758, 449.930 242.408, 449.656 241.731 C 449.382 241.054, 449.175 241.850, 449.195 243.500 M 36.195 245.500 C 36.215 247.150, 36.439 247.704, 36.693 246.731 C 36.947 245.758, 36.930 244.408, 36.656 243.731 C 36.382 243.054, 36.175 243.850, 36.195 245.500 M 237.784 438.738 C 240.689 438.941, 245.189 438.939, 247.784 438.734 C 250.378 438.528, 248 438.363, 242.500 438.365 C 237 438.368, 234.878 438.536, 237.784 438.738" stroke="none" fill="#ecfb83" fill-rule="evenodd"/></svg>