<svg xmlns="http://www.w3.org/2000/svg" width="412" height="412" viewBox="0 0 412 412" version="1.1"><path d="M -0 206.002 L -0 412.005 206.250 411.752 L 412.500 411.500 412.752 205.750 L 413.005 -0 206.502 -0 L 0 0 -0 206.002 M 0.491 206.500 C 0.491 319.800, 0.607 366.002, 0.750 309.170 C 0.893 252.339, 0.893 159.639, 0.750 103.170 C 0.607 46.702, 0.491 93.200, 0.491 206.500 M 188.338 44.094 C 124.349 51.552, 70.651 94.373, 49.659 154.683 C 31.315 207.381, 40.773 266.088, 74.730 310.312 C 98.926 341.824, 133.661 363.430, 174.143 372.149 C 182.926 374.041, 187.691 374.389, 205.500 374.440 C 223.600 374.492, 228.064 374.183, 237.828 372.205 C 302.096 359.184, 351.770 311.993, 367.517 249 C 374.343 221.695, 373.779 191.366, 365.926 163.399 C 344.417 86.799, 267.173 34.906, 188.338 44.094 M 193.247 107.038 C 148.636 112.630, 112.795 145.459, 103.770 188.995 C 100.950 202.598, 101.680 223.754, 105.402 236.284 C 116.548 273.809, 144.721 300.396, 183.227 309.728 C 188.759 311.069, 194.449 311.473, 207 311.415 C 221.458 311.348, 224.699 311.018, 233.183 308.744 C 273.887 297.836, 304.137 264.510, 310.052 224.059 C 311.639 213.205, 310.726 195.101, 308.031 184 C 305.167 172.197, 296.621 155.362, 288.238 145.005 C 273.390 126.663, 251.620 113.469, 228.011 108.502 C 219.042 106.616, 202.256 105.908, 193.247 107.038 M 198.500 139.651 C 175.068 143.390, 156.390 157.242, 146.497 178.219 C 137.952 196.338, 136.952 214.558, 143.473 233.311 C 147.017 243.501, 151.582 250.534, 160.512 259.565 C 174.227 273.434, 190.553 279.740, 210 278.681 C 227.095 277.750, 240.088 271.801, 253.078 258.957 C 259.239 252.866, 261.602 249.593, 265.353 241.957 C 271.560 229.319, 273.348 221.933, 273.331 209 C 273.314 196.590, 271.529 188.930, 265.994 177.500 C 257.768 160.516, 243.463 148.076, 225.706 142.467 C 218.027 140.041, 204.699 138.662, 198.500 139.651" stroke="none" fill="#4c3494" fill-rule="evenodd"/><path d="M 188.338 44.094 C 124.349 51.552, 70.651 94.373, 49.659 154.683 C 31.315 207.381, 40.773 266.088, 74.730 310.312 C 98.926 341.824, 133.661 363.430, 174.143 372.149 C 182.926 374.041, 187.691 374.389, 205.500 374.440 C 223.600 374.492, 228.064 374.183, 237.828 372.205 C 302.096 359.184, 351.770 311.993, 367.517 249 C 374.343 221.695, 373.779 191.366, 365.926 163.399 C 344.417 86.799, 267.173 34.906, 188.338 44.094 M 193.247 107.038 C 148.636 112.630, 112.795 145.459, 103.770 188.995 C 100.950 202.598, 101.680 223.754, 105.402 236.284 C 116.548 273.809, 144.721 300.396, 183.227 309.728 C 188.759 311.069, 194.449 311.473, 207 311.415 C 221.458 311.348, 224.699 311.018, 233.183 308.744 C 273.887 297.836, 304.137 264.510, 310.052 224.059 C 311.639 213.205, 310.726 195.101, 308.031 184 C 305.167 172.197, 296.621 155.362, 288.238 145.005 C 273.390 126.663, 251.620 113.469, 228.011 108.502 C 219.042 106.616, 202.256 105.908, 193.247 107.038 M 198.500 139.651 C 175.068 143.390, 156.390 157.242, 146.497 178.219 C 137.952 196.338, 136.952 214.558, 143.473 233.311 C 147.017 243.501, 151.582 250.534, 160.512 259.565 C 174.227 273.434, 190.553 279.740, 210 278.681 C 227.095 277.750, 240.088 271.801, 253.078 258.957 C 259.239 252.866, 261.602 249.593, 265.353 241.957 C 271.560 229.319, 273.348 221.933, 273.331 209 C 273.314 196.590, 271.529 188.930, 265.994 177.500 C 257.768 160.516, 243.463 148.076, 225.706 142.467 C 218.027 140.041, 204.699 138.662, 198.500 139.651" stroke="none" fill="#fbfafb" fill-rule="evenodd"/></svg>