<svg width="150" height="150" viewBox="0 0 150 150" fill="none" xmlns="http://www.w3.org/2000/svg">
<g id="undraw_male_avatar_g98d 1" clip-path="url(#clip0_228_1240)">
<path id="Vector" d="M76.3421 97.9181C89.7883 97.9181 100.689 87.0178 100.689 73.5716C100.689 60.1254 89.7883 49.2251 76.3421 49.2251C62.8959 49.2251 51.9956 60.1254 51.9956 73.5716C51.9956 87.0178 62.8959 97.9181 76.3421 97.9181Z" fill="#FFB6B6"/>
<path id="Vector_2" d="M62.3655 101.519L61.2656 90.4L83.2302 86.293L96.2001 117.872L73.6437 143.812L57.5723 112.233L62.3655 101.519Z" fill="#FFB6B6"/>
<path id="Vector_3" d="M60.9128 95.9654L65.7148 97.0504C65.7148 97.0504 61.9399 85.0802 63.2212 83.9374C64.5025 82.7945 67.6423 84.5952 67.6423 84.5952L70.9417 88.2945L74.9607 84.2026C74.9607 84.2026 79.3239 78.7772 81.0323 77.2535C82.7407 75.7297 79.9966 70.0739 79.9966 70.0739C79.9966 70.0739 105.342 63.2395 95.911 50.9461C95.911 50.9461 90.3816 41.3077 88.5809 44.4474C86.7803 47.5872 84.6331 42.6006 84.6331 42.6006L78.0766 43.8474C78.0766 43.8474 65.1365 36.2176 52.8548 52.54C40.5731 68.8623 60.9128 95.9654 60.9128 95.9654Z" fill="#2F2E41"/>
<path id="Vector_4" d="M122.131 133.351C108.826 144.138 92.3655 150 74.9999 150C59.1428 150 44.0385 145.111 31.4041 136.049C31.4266 135.812 31.4492 135.578 31.4689 135.344C31.8044 131.679 32.1033 128.115 32.3007 125.16C33.0648 113.687 59.8307 106.04 59.8307 106.04C59.8307 106.04 59.952 106.162 60.1945 106.373C61.6719 107.67 67.6691 112.373 78.186 113.687C87.5638 114.86 90.6512 109.297 91.5845 106.633C91.8665 105.821 91.9511 105.276 91.9511 105.276L119.481 118.277C121.277 120.843 121.979 126.369 122.117 132.581C122.123 132.837 122.129 133.091 122.131 133.351Z" fill="#3B60CE"/>
<path id="Vector_5" d="M128.033 21.9671C113.867 7.80168 95.0329 0 75 0C54.9671 0 36.1325 7.80168 21.9671 21.9671C7.8017 36.1325 0 54.9671 0 75C0 93.2848 6.49907 110.571 18.4088 124.221C19.5451 125.526 20.7322 126.798 21.9671 128.033C22.2575 128.323 22.5508 128.614 22.8468 128.896C23.6363 129.66 24.4399 130.407 25.2575 131.132C25.7538 131.574 26.2557 132.008 26.7632 132.434C27.1607 132.77 27.5583 133.1 27.9615 133.424C27.9699 133.432 27.9756 133.438 27.984 133.444C29.1034 134.346 30.2425 135.214 31.4041 136.049C44.0385 145.111 59.1429 150 75 150C92.3656 150 108.826 144.138 122.132 133.351C123.217 132.471 124.28 131.557 125.323 130.613C126.245 129.778 127.148 128.918 128.033 128.033C128.312 127.754 128.591 127.472 128.865 127.187C129.626 126.403 130.365 125.605 131.086 124.796C143.315 111.059 150 93.5442 150 75C150 54.9671 142.198 36.1325 128.033 21.9671ZM130.903 124.094C130.198 124.895 129.477 125.684 128.738 126.454C127.587 127.652 126.4 128.814 125.174 129.933C124.709 130.362 124.238 130.779 123.761 131.194C123.22 131.664 122.673 132.127 122.117 132.581C117.739 136.176 112.943 139.277 107.814 141.804C105.787 142.805 103.709 143.715 101.583 144.53C93.3243 147.699 84.3609 149.436 75 149.436C65.9662 149.436 57.3045 147.818 49.2885 144.857C45.9981 143.645 42.8177 142.204 39.7641 140.555C39.3158 140.312 38.8703 140.067 38.4276 139.816C36.0987 138.496 33.8459 137.055 31.6833 135.499C31.6128 135.448 31.5395 135.395 31.469 135.344C29.9295 134.233 28.4323 133.063 26.9859 131.834C26.4558 131.385 25.9314 130.931 25.4154 130.466C24.5752 129.719 23.7519 128.949 22.9483 128.16C21.4258 126.668 19.9709 125.115 18.5808 123.499C7.35621 110.461 0.56391 93.5103 0.56391 75C0.56391 33.9558 33.9558 0.56391 75 0.56391C116.044 0.56391 149.436 33.9558 149.436 75C149.436 93.7951 142.435 110.983 130.903 124.094Z" fill="#3F3D56"/>
</g>
<defs>
<clipPath id="clip0_228_1240">
<rect width="150" height="150" fill="white"/>
</clipPath>
</defs>
</svg>
